<?xml version="1.0" encoding="UTF-8" standalone="no"?>
<!-- Created with Inkscape (http://www.inkscape.org/) -->

<svg
   xmlns:dc="http://purl.org/dc/elements/1.1/"
   xmlns:cc="http://creativecommons.org/ns#"
   xmlns:rdf="http://www.w3.org/1999/02/22-rdf-syntax-ns#"
   xmlns:svg="http://www.w3.org/2000/svg"
   xmlns="http://www.w3.org/2000/svg"
   xmlns:sodipodi="http://sodipodi.sourceforge.net/DTD/sodipodi-0.dtd"
   xmlns:inkscape="http://www.inkscape.org/namespaces/inkscape"
   width="37.171249"
   height="20.46875"
   id="svg2"
   version="1.1"
   inkscape:version="0.48.4 r9939"
   sodipodi:docname="New document 1">
  <defs
     id="defs4">
    <clipPath
       id="clipPath2999"
       clipPathUnits="userSpaceOnUse">
      <path
         id="path3001"
         d="M 0,48 48,48 48,0 0,0 0,48 z"
         inkscape:connector-curvature="0" />
    </clipPath>
  </defs>
  <sodipodi:namedview
     id="base"
     pagecolor="#ffffff"
     bordercolor="#666666"
     borderopacity="1.0"
     inkscape:pageopacity="0.0"
     inkscape:pageshadow="2"
     inkscape:zoom="0.35"
     inkscape:cx="18.585625"
     inkscape:cy="10.234377"
     inkscape:document-units="px"
     inkscape:current-layer="layer1"
     showgrid="false"
     fit-margin-top="0"
     fit-margin-left="0"
     fit-margin-right="0"
     fit-margin-bottom="0"
     inkscape:window-width="499"
     inkscape:window-height="442"
     inkscape:window-x="2130"
     inkscape:window-y="210"
     inkscape:window-maximized="0" />
  <metadata
     id="metadata7">
    <rdf:RDF>
      <cc:Work
         rdf:about="">
        <dc:format>image/svg+xml</dc:format>
        <dc:type
           rdf:resource="http://purl.org/dc/dcmitype/StillImage" />
        <dc:title></dc:title>
      </cc:Work>
    </rdf:RDF>
  </metadata>
  <g
     inkscape:label="Layer 1"
     inkscape:groupmode="layer"
     id="layer1"
     transform="translate(-356.41437,-522.12781)">
    <g
       transform="matrix(1.25,0,0,-1.25,347.06675,565.14931)"
       inkscape:label="glyphicons_52"
       id="g2993">
      <g
         id="g2995">
        <g
           clip-path="url(#clipPath2999)"
           id="g2997">
          <g
             transform="translate(27.9971,21.2412)"
             id="g3003">
            <path
               id="path3005"
               style="fill:#000000;fill-opacity:1;fill-rule:nonzero;stroke:none"
               d="M 0,0 C 1.47,1.455 2.381,3.474 2.381,5.707 2.381,6.224 2.327,6.728 2.234,7.218 4.343,6.212 6.005,5.042 6.85,4.269 5.726,3.236 3.159,1.273 0,0 m -13.553,7.101 c -0.079,-0.453 -0.129,-0.917 -0.129,-1.394 0,-2.181 0.871,-4.154 2.281,-5.6 -2.918,1.272 -5.216,3.159 -6.313,4.164 0.809,0.743 2.275,1.851 4.161,2.83 m 3.896,-1.394 c 0,-2.212 1.794,-4.009 4.007,-4.009 2.212,0 4.006,1.797 4.006,4.009 0,1.37 -0.691,2.579 -1.742,3.302 1.092,-0.167 2.151,-0.442 3.154,-0.782 0.358,-0.767 0.563,-1.619 0.563,-2.52 0,-3.304 -2.678,-5.981 -5.981,-5.981 -3.304,0 -5.982,2.677 -5.982,5.981 0,0.88 0.195,1.714 0.537,2.466 0.997,0.36 2.059,0.656 3.175,0.832 C -8.968,8.282 -9.657,7.075 -9.657,5.707 M -6.52,3.904 -7.254,3.17 c -0.538,0.342 -0.941,0.859 -1.178,1.459 l 0.814,0.812 c 0.092,-0.675 0.506,-1.25 1.098,-1.537 m 0.87,9.272 c -9.844,0 -14.869,-8.906 -14.869,-8.906 0,0 7.065,-7.469 14.869,-7.469 7.803,0 14.868,7.469 14.868,7.469 0,0 -5.025,8.906 -14.868,8.906"
               inkscape:connector-curvature="0" />
          </g>
        </g>
      </g>
    </g>
  </g>
</svg>
