<?xml version="1.0" encoding="UTF-8" standalone="no"?>
<!-- Created with Inkscape (http://www.inkscape.org/) -->

<svg
   xmlns:dc="http://purl.org/dc/elements/1.1/"
   xmlns:cc="http://creativecommons.org/ns#"
   xmlns:rdf="http://www.w3.org/1999/02/22-rdf-syntax-ns#"
   xmlns:svg="http://www.w3.org/2000/svg"
   xmlns="http://www.w3.org/2000/svg"
   xmlns:sodipodi="http://sodipodi.sourceforge.net/DTD/sodipodi-0.dtd"
   xmlns:inkscape="http://www.inkscape.org/namespaces/inkscape"
   width="26.190001"
   height="28.348749"
   id="svg3123"
   version="1.1"
   inkscape:version="0.48.4 r9939"
   sodipodi:docname="New document 8">
  <defs
     id="defs3125">
    <clipPath
       id="clipPath3145"
       clipPathUnits="userSpaceOnUse">
      <path
         id="path3147"
         d="M 0,48 48,48 48,0 0,0 0,48 z"
         inkscape:connector-curvature="0" />
    </clipPath>
  </defs>
  <sodipodi:namedview
     id="base"
     pagecolor="#ffffff"
     bordercolor="#666666"
     borderopacity="1.0"
     inkscape:pageopacity="0.0"
     inkscape:pageshadow="2"
     inkscape:zoom="0.35"
     inkscape:cx="13.095005"
     inkscape:cy="14.174377"
     inkscape:document-units="px"
     inkscape:current-layer="layer1"
     showgrid="false"
     fit-margin-top="0"
     fit-margin-left="0"
     fit-margin-right="0"
     fit-margin-bottom="0"
     inkscape:window-width="499"
     inkscape:window-height="442"
     inkscape:window-x="2010"
     inkscape:window-y="90"
     inkscape:window-maximized="0" />
  <metadata
     id="metadata3128">
    <rdf:RDF>
      <cc:Work
         rdf:about="">
        <dc:format>image/svg+xml</dc:format>
        <dc:type
           rdf:resource="http://purl.org/dc/dcmitype/StillImage" />
        <dc:title></dc:title>
      </cc:Work>
    </rdf:RDF>
  </metadata>
  <g
     inkscape:label="Layer 1"
     inkscape:groupmode="layer"
     id="layer1"
     transform="translate(-361.90499,-518.18781)">
    <g
       transform="matrix(1.25,0,0,-1.25,344.90837,561.79656)"
       inkscape:label="glyphicons_227"
       id="g3139">
      <g
         id="g3141">
        <g
           clip-path="url(#clipPath3145)"
           id="g3143">
          <g
             transform="translate(30.5293,21)"
             id="g3149">
            <path
               id="path3151"
               style="fill:#000000;fill-opacity:1;fill-rule:nonzero;stroke:none"
               d="m 0,0 c -0.318,-3 -1.697,-4.75 -4.237,-4.75 -2.35,0 -3.775,1.758 -4.507,3.75 l 4.812,0 0.805,3 -6.211,0 c -0.017,0.288 -0.023,1 -0.016,1 l 6.422,0 0.805,3 -6.738,0 c 0.69,3 2.138,3.844 4.628,3.844 C -2.174,9.844 -0.314,8 -0.049,6 l 4.02,0 c -0.502,5 -4.055,7.887 -8.208,7.887 -4.697,0 -7.837,-2.887 -8.891,-7.887 l -2.999,0 -0.805,-3 3.423,0 c -0.008,0 -0.002,-0.714 0.013,-1 l -2.631,0 -0.805,-3 3.881,0 c 1.125,-4.385 4.229,-7.792 8.814,-7.792 C 0.392,-8.792 3.596,-5 4.02,0 L 0,0 z"
               inkscape:connector-curvature="0" />
          </g>
        </g>
      </g>
    </g>
  </g>
</svg>
