<?xml version="1.0" encoding="utf-8"?>
<!-- Generator: Adobe Illustrator 19.1.0, SVG Export Plug-In . SVG Version: 6.00 Build 0)  -->
<svg version="1.1" id="Layer_1" xmlns="http://www.w3.org/2000/svg" xmlns:xlink="http://www.w3.org/1999/xlink" x="0px" y="0px"
	 viewBox="0 0 48 48" style="enable-background:new 0 0 48 48;" xml:space="preserve">
<g id="git-pull-request_2_">
	<path d="M32,29.024V15h-6v-2l-3.889,3.491L26,19.982V18h3v11.024c-1.121,0.122-2,1.062-2,2.216v2.52c0,1.235,1.005,2.24,2.24,2.24
		h2.52c1.235,0,2.24-1.005,2.24-2.24v-2.52C34,30.087,33.121,29.146,32,29.024z M32,33.76c0,0.133-0.107,0.24-0.24,0.24h-2.52
		C29.107,34,29,33.893,29,33.76v-2.52c0-0.133,0.107-0.24,0.24-0.24h2.52c0.133,0,0.24,0.107,0.24,0.24V33.76z M18.76,12h-2.52
		C15.005,12,14,13.005,14,14.24v2.52c0,1.153,0.879,2.094,2,2.216v10.049c-1.121,0.122-2,1.062-2,2.216v2.52
		c0,1.235,1.005,2.24,2.24,2.24h2.52c1.235,0,2.24-1.005,2.24-2.24v-2.52c0-1.153-0.879-2.094-2-2.216V18.976
		c1.121-0.122,2-1.062,2-2.216v-2.52C21,13.005,19.995,12,18.76,12z M19,33.76c0,0.133-0.107,0.24-0.24,0.24h-2.52
		C16.107,34,16,33.893,16,33.76v-2.52c0-0.133,0.107-0.24,0.24-0.24h2.52c0.133,0,0.24,0.107,0.24,0.24V33.76z M19,16.76
		c0,0.133-0.107,0.24-0.24,0.24h-2.52C16.107,17,16,16.893,16,16.76v-2.52c0-0.133,0.107-0.24,0.24-0.24h2.52
		c0.133,0,0.24,0.107,0.24,0.24V16.76z"/>
</g>
</svg>
