<?xml version="1.0" encoding="UTF-8" standalone="no"?>
<!-- Created with Inkscape (http://www.inkscape.org/) -->

<svg
   xmlns:dc="http://purl.org/dc/elements/1.1/"
   xmlns:cc="http://creativecommons.org/ns#"
   xmlns:rdf="http://www.w3.org/1999/02/22-rdf-syntax-ns#"
   xmlns:svg="http://www.w3.org/2000/svg"
   xmlns="http://www.w3.org/2000/svg"
   xmlns:sodipodi="http://sodipodi.sourceforge.net/DTD/sodipodi-0.dtd"
   xmlns:inkscape="http://www.inkscape.org/namespaces/inkscape"
   width="28.938251"
   height="28.945114"
   id="svg3043"
   version="1.1"
   inkscape:version="0.48.4 r9939"
   sodipodi:docname="New document 4">
  <defs
     id="defs3045">
    <clipPath
       id="clipPath3065"
       clipPathUnits="userSpaceOnUse">
      <path
         id="path3067"
         d="M 0,48 48,48 48,0 0,0 0,48 z"
         inkscape:connector-curvature="0" />
    </clipPath>
  </defs>
  <sodipodi:namedview
     id="base"
     pagecolor="#ffffff"
     bordercolor="#666666"
     borderopacity="1.0"
     inkscape:pageopacity="0.0"
     inkscape:pageshadow="2"
     inkscape:zoom="0.35"
     inkscape:cx="14.469126"
     inkscape:cy="14.472561"
     inkscape:document-units="px"
     inkscape:current-layer="layer1"
     showgrid="false"
     fit-margin-top="0"
     fit-margin-left="0"
     fit-margin-right="0"
     fit-margin-bottom="0"
     inkscape:window-width="499"
     inkscape:window-height="442"
     inkscape:window-x="2010"
     inkscape:window-y="90"
     inkscape:window-maximized="0" />
  <metadata
     id="metadata3048">
    <rdf:RDF>
      <cc:Work
         rdf:about="">
        <dc:format>image/svg+xml</dc:format>
        <dc:type
           rdf:resource="http://purl.org/dc/dcmitype/StillImage" />
        <dc:title></dc:title>
      </cc:Work>
    </rdf:RDF>
  </metadata>
  <g
     inkscape:label="Layer 1"
     inkscape:groupmode="layer"
     id="layer1"
     transform="translate(-360.53087,-517.88963)">
    <g
       transform="matrix(1.25,0,0,-1.25,344.99221,562.36813)"
       inkscape:label="glyphicons_371"
       id="g3059">
      <g
         id="g3061">
        <g
           clip-path="url(#clipPath3065)"
           id="g3063">
          <g
             transform="translate(29.123,24.0068)"
             id="g3069">
            <path
               id="path3071"
               style="fill:#000000;fill-opacity:1;fill-rule:nonzero;stroke:none"
               d="m 0,0 c -0.439,-0.469 -1.095,-1.211 -1.814,-1.208 -0.489,0.002 -0.536,1.513 -1.127,1.793 -0.3,0.143 -0.718,-0.196 -0.476,-0.49 0.263,-0.32 0.261,-0.751 0.597,-1.028 0.583,-0.477 1.106,-1.027 1.867,-0.441 -0.077,-0.894 -0.754,-1.4 -1.279,-2.045 -0.295,-0.363 -0.531,-0.769 -0.436,-1.255 0.08,-0.408 0.374,-0.961 0.045,-1.334 -0.217,-0.247 -0.706,-0.385 -0.724,-0.773 0.055,-0.146 0.077,-0.296 0.065,-0.45 -0.103,-0.215 -0.327,-0.357 -0.442,-0.578 -0.219,-0.421 -0.674,-1.242 -1.165,-1.401 -0.24,-0.078 -0.857,-0.282 -1.045,-0.045 -0.498,0.628 -0.325,2.09 -0.617,2.824 -0.193,0.486 0.17,0.724 0.177,1.176 0.006,0.346 -0.232,0.637 -0.394,0.922 -0.209,0.365 -0.165,0.61 -0.15,1.007 0.013,0.376 -0.35,0.189 -0.555,0.307 -0.229,0.133 -0.254,0.431 -0.579,0.228 -0.28,-0.172 -1.142,-0.317 -1.462,-0.262 -0.464,0.08 -1.028,1.08 -1.146,1.495 -0.109,0.389 0.187,0.762 0.079,1.088 -0.115,0.343 -0.016,0.658 0.21,0.927 0.346,0.408 0.759,1.094 1.203,1.36 0.316,0.19 0.728,0.006 1.103,0.109 0.336,0.091 0.834,0.211 1.19,0.13 0.371,-0.084 -0.048,-0.452 0.198,-0.588 0.287,-0.158 0.494,-0.299 0.764,-0.471 0.278,-0.176 0.382,0.319 0.582,0.368 0.243,0.059 0.576,0.094 0.823,0.044 C -4.029,1.308 -3.049,1.638 -3.53,2.35 -3.699,2.599 -4.154,2.672 -4.411,2.778 -4.728,2.91 -4.538,3.449 -4.964,3.429 -5.283,3.35 -4.846,3.017 -4.954,2.831 -5.152,2.492 -5.524,3.207 -5.575,3.299 -5.634,3.406 -6.332,4.37 -6.553,4.161 -6.627,4.09 -5.38,2.669 -6.328,2.946 -6.331,3.321 -6.718,3.359 -6.922,3.608 -7.206,3.955 -7.434,3.801 -7.75,3.524 -8.059,3.254 -8.508,2.877 -8.881,2.698 c -0.814,-0.39 -0.687,0.448 -0.664,0.936 0.015,0.326 0.498,0.174 0.672,0.25 0.529,0.233 0.011,0.48 -0.125,0.703 0.155,0.232 1.094,0.509 1.359,0.578 0.595,0.158 1.094,0.647 1.821,0.285 0.094,-0.045 1.007,0.525 0.356,0.687 -0.722,0.429 -0.755,-0.195 -1.302,-0.363 -0.004,0.604 -1.482,0.659 -0.927,1.467 0.452,0.66 0.82,0.752 2.1,0.846 0.937,0.062 1.39,0.031 1.593,-0.141 0.203,-0.172 0.265,-0.79 -0.223,-0.851 0.092,-0.807 0.936,-0.062 1.259,0.145 0.532,0.341 1.656,0.131 1.808,0.253 0.151,0.122 -0.101,0.469 0.032,0.688 0.125,0.207 0.441,0.101 0.483,-0.11 C -0.065,7.979 0.206,8.405 0.816,8 2.656,6.774 4.083,5.01 4.81,2.154 5.136,0.873 5.196,-0.559 4.822,-0.455 4.571,-0.386 4.692,0.174 4.525,0.334 4.092,0.232 3.362,-0.488 3.173,-0.887 3.055,-1.136 3.289,-2.101 2.771,-2.101 2.562,-2.101 2.459,-1.33 2.429,-1.199 2.34,-0.82 2.271,-0.417 2.105,-0.062 1.916,0.346 1.744,0.089 1.446,0.147 1.062,0.224 1.151,0.738 0.609,0.784 0.109,0.827 -0.065,0.431 0,0 m -1.146,-6.37 c -0.031,-0.369 -0.289,-1.285 -0.792,-1.285 -0.365,0 -0.361,0.513 -0.324,0.763 0.134,0.894 0.514,1.061 1,1.732 0.336,-0.283 0.147,-0.836 0.116,-1.21 M -9.314,6.552 c 0.319,0.929 2.039,-0.542 1.117,-1.35 -0.221,-0.194 -1.419,-0.162 -1.164,0.117 0.102,0.112 0.258,0.113 0.359,0.252 0.262,0.365 -0.148,0.695 -0.312,0.981 m 4.191,5.024 c -4.514,0 -8.713,-2.715 -10.567,-6.831 -1.877,-4.17 -1.068,-9.191 2.015,-12.564 3.08,-3.37 7.992,-4.63 12.315,-3.146 4.246,1.457 7.34,5.373 7.767,9.843 0.641,6.711 -4.783,12.698 -11.53,12.698"
               inkscape:connector-curvature="0" />
          </g>
        </g>
      </g>
    </g>
  </g>
</svg>
