<?xml version="1.0" encoding="UTF-8" standalone="no"?>
<!-- Created with Inkscape (http://www.inkscape.org/) -->

<svg
   xmlns:dc="http://purl.org/dc/elements/1.1/"
   xmlns:cc="http://creativecommons.org/ns#"
   xmlns:rdf="http://www.w3.org/1999/02/22-rdf-syntax-ns#"
   xmlns:svg="http://www.w3.org/2000/svg"
   xmlns="http://www.w3.org/2000/svg"
   xmlns:sodipodi="http://sodipodi.sourceforge.net/DTD/sodipodi-0.dtd"
   xmlns:inkscape="http://www.inkscape.org/namespaces/inkscape"
   width="31.485624"
   height="31.25"
   id="svg3063"
   version="1.1"
   inkscape:version="0.48.4 r9939"
   sodipodi:docname="help.svg">
  <defs
     id="defs3065">
    <clipPath
       id="clipPath3085"
       clipPathUnits="userSpaceOnUse">
      <path
         id="path3087"
         d="M 0,48 48,48 48,0 0,0 0,48 z"
         inkscape:connector-curvature="0" />
    </clipPath>
  </defs>
  <sodipodi:namedview
     id="base"
     pagecolor="#ffffff"
     bordercolor="#666666"
     borderopacity="1.0"
     inkscape:pageopacity="0.0"
     inkscape:pageshadow="2"
     inkscape:zoom="3.09"
     inkscape:cx="15.742816"
     inkscape:cy="15.625007"
     inkscape:document-units="px"
     inkscape:current-layer="layer1"
     showgrid="false"
     fit-margin-top="1"
     fit-margin-left="1"
     fit-margin-right="1"
     fit-margin-bottom="1"
     inkscape:window-width="499"
     inkscape:window-height="442"
     inkscape:window-x="1980"
     inkscape:window-y="60"
     inkscape:window-maximized="0" />
  <metadata
     id="metadata3068">
    <rdf:RDF>
      <cc:Work
         rdf:about="">
        <dc:format>image/svg+xml</dc:format>
        <dc:type
           rdf:resource="http://purl.org/dc/dcmitype/StillImage" />
        <dc:title />
      </cc:Work>
    </rdf:RDF>
  </metadata>
  <g
     inkscape:label="Layer 1"
     inkscape:groupmode="layer"
     id="layer1"
     transform="translate(-359.25718,-516.73718)">
    <g
       transform="matrix(1.25,0,0,-1.25,344.99987,562.48731)"
       inkscape:label="glyphicons_308"
       id="g3079">
      <g
         id="g3081">
        <g
           clip-path="url(#clipPath3085)"
           id="g3083">
          <g
             transform="translate(19.3086,15.1201)"
             id="g3089">
            <path
               id="path3091"
               style="fill:#000000;fill-opacity:1;fill-rule:nonzero;stroke:none"
               d="M 0,0 1.974,2.667 C 2.821,2.308 3.741,2.116 4.691,2.116 c 0.951,0 1.87,0.192 2.718,0.551 L 9.381,-0.001 C 7.948,-0.737 6.352,-1.134 4.691,-1.134 3.03,-1.134 1.433,-0.737 0,0 m -4.365,13.629 2.691,-1.955 c -0.361,-0.841 -0.554,-1.752 -0.554,-2.695 0,-0.941 0.193,-1.852 0.554,-2.693 l -2.69,-1.957 c -1.516,2.906 -1.516,6.393 -0.001,9.3 M 9.383,17.96 7.409,15.293 c -0.848,0.358 -1.767,0.55 -2.718,0.55 -0.95,0 -1.869,-0.192 -2.716,-0.55 l -1.973,2.668 c 1.433,0.737 3.029,1.133 4.689,1.133 1.661,0 3.259,-0.396 4.692,-1.134 M 11.059,6.285 c 0.361,0.842 0.554,1.753 0.554,2.694 0,0.942 -0.192,1.854 -0.554,2.696 l 2.688,1.955 c 1.516,-2.906 1.516,-6.392 10e-4,-9.299 L 11.059,6.285 z M 0.928,5.248 c -2.076,2.058 -2.076,5.406 0,7.464 1.005,0.996 2.342,1.545 3.763,1.545 1.422,0 2.759,-0.549 3.764,-1.545 C 9.46,11.716 10.014,10.39 10.014,8.979 10.014,7.57 9.46,6.245 8.455,5.248 7.449,4.251 6.112,3.702 4.691,3.702 3.27,3.702 1.934,4.251 0.928,5.248 m 12.107,12.005 c -2.228,2.21 -5.191,3.427 -8.344,3.427 -3.152,0 -6.115,-1.217 -8.343,-3.427 -4.601,-4.563 -4.601,-11.984 0,-16.546 2.228,-2.21 5.191,-3.427 8.343,-3.427 3.153,0 6.116,1.217 8.344,3.427 4.601,4.562 4.601,11.984 0,16.546"
               inkscape:connector-curvature="0" />
          </g>
        </g>
      </g>
    </g>
  </g>
</svg>
