<?xml version="1.0" encoding="UTF-8" standalone="no"?>
<!-- Created with Inkscape (http://www.inkscape.org/) -->

<svg
   xmlns:dc="http://purl.org/dc/elements/1.1/"
   xmlns:cc="http://creativecommons.org/ns#"
   xmlns:rdf="http://www.w3.org/1999/02/22-rdf-syntax-ns#"
   xmlns:svg="http://www.w3.org/2000/svg"
   xmlns="http://www.w3.org/2000/svg"
   xmlns:sodipodi="http://sodipodi.sourceforge.net/DTD/sodipodi-0.dtd"
   xmlns:inkscape="http://www.inkscape.org/namespaces/inkscape"
   version="1.1"
   width="100"
   height="100"
   id="svg3143"
   inkscape:version="0.48.4 r9939"
   sodipodi:docname="Mac_os_x_icon.svg">
  <metadata
     id="metadata3838">
    <rdf:RDF>
      <cc:Work
         rdf:about="">
        <dc:format>image/svg+xml</dc:format>
        <dc:type
           rdf:resource="http://purl.org/dc/dcmitype/StillImage" />
      </cc:Work>
    </rdf:RDF>
  </metadata>
  <sodipodi:namedview
     pagecolor="#ffffff"
     bordercolor="#666666"
     borderopacity="1"
     objecttolerance="10"
     gridtolerance="10"
     guidetolerance="10"
     inkscape:pageopacity="0"
     inkscape:pageshadow="2"
     inkscape:window-width="759"
     inkscape:window-height="480"
     id="namedview3836"
     showgrid="false"
     inkscape:zoom="2.36"
     inkscape:cx="50"
     inkscape:cy="50"
     inkscape:window-x="2066"
     inkscape:window-y="193"
     inkscape:window-maximized="0"
     inkscape:current-layer="svg3143" />
  <defs
     id="defs3145">
    <filter
       x="0"
       y="0"
       width="1"
       height="1"
       color-interpolation-filters="sRGB"
       id="filter3907">
      <feColorMatrix
         id="feColorMatrix3909"
         type="saturate"
         values="1"
         result="result91" />
      <feComposite
         in2="result91"
         operator="arithmetic"
         k1="0.3"
         k2="0.4"
         k3="0.3"
         k4="0"
         result="result15"
         id="feComposite3911" />
      <feGaussianBlur
         id="feGaussianBlur3913"
         in="result15"
         result="result8"
         stdDeviation="5" />
      <feComposite
         in2="result8"
         operator="in"
         result="result13"
         id="feComposite3915" />
      <feComposite
         in2="result13"
         operator="arithmetic"
         k1="0.3"
         k2="0.4"
         k3="0.3"
         k4="0"
         in="result15"
         result="result6"
         id="feComposite3917" />
      <feFlood
         id="feFlood3919"
         flood-color="rgb(128,172,0)"
         flood-opacity="1"
         in="result6"
         result="result10" />
      <feBlend
         in2="result10"
         mode="darken"
         in="result6"
         result="result12"
         id="feBlend3921" />
      <feBlend
         in2="result6"
         mode="screen"
         result="result14"
         id="feBlend3923" />
      <feComposite
         in2="SourceGraphic"
         operator="in"
         in="result14"
         result="result2"
         id="feComposite3925" />
    </filter>
    <filter
       x="0"
       y="0"
       width="1"
       height="1"
       color-interpolation-filters="sRGB"
       id="filter3927">
      <feColorMatrix
         id="feColorMatrix3929"
         type="saturate"
         values="1"
         result="result91" />
      <feComposite
         in2="result91"
         operator="arithmetic"
         k1="0.3"
         k2="0.4"
         k3="0.3"
         k4="0"
         result="result15"
         id="feComposite3931" />
      <feGaussianBlur
         id="feGaussianBlur3933"
         in="result15"
         result="result8"
         stdDeviation="5" />
      <feComposite
         in2="result8"
         operator="in"
         result="result13"
         id="feComposite3935" />
      <feComposite
         in2="result13"
         operator="arithmetic"
         k1="0.3"
         k2="0.4"
         k3="0.3"
         k4="0"
         in="result15"
         result="result6"
         id="feComposite3937" />
      <feFlood
         id="feFlood3939"
         flood-color="rgb(128,172,0)"
         flood-opacity="1"
         in="result6"
         result="result10" />
      <feBlend
         in2="result10"
         mode="darken"
         in="result6"
         result="result12"
         id="feBlend3941" />
      <feBlend
         in2="result6"
         mode="screen"
         result="result14"
         id="feBlend3943" />
      <feComposite
         in2="SourceGraphic"
         operator="in"
         in="result14"
         result="result2"
         id="feComposite3945" />
    </filter>
  </defs>
  <path
     d="m 92.388245,73.548049 c 0.429137,-1.5188 -0.0013,-2.054917 -0.72144,-2.259814 -3.791372,-2.139481 -6.319243,-4.542467 -8.997821,-8.096172 -2.156892,-4.127361 -3.310292,-5.413842 -3.155109,-11.231052 -0.144924,-2.803513 0.235069,-5.607021 1.532665,-8.410534 1.528382,-2.876532 2.926085,-5.297555 5.805527,-6.974766 l 2.758794,-2.242809 c 0.666533,-0.459806 0.665749,-1.373453 0.325125,-1.99647 -2.404798,-2.273282 -4.348361,-4.606826 -8.672697,-6.629309 -1.751911,-0.927696 -4.396093,-1.645594 -7.880066,-1.781226 -2.459581,0.001 -4.845801,-0.06504 -7.861472,0.444576 -2.416138,0.359797 -4.940647,1.10968 -7.356786,2.24281 l -3.480233,1.517881 C 52.477407,28.62552 50.473566,28.375452 48.554079,27.8168 l -6.437186,-2.489147 c -2.240322,-0.754543 -4.8628,-1.159562 -7.969847,-1.121405 -3.067173,-0.0084 -6.10678,0.109174 -8.889447,1.401756 -2.205934,0.972891 -4.212725,2.127915 -6.130653,3.364214 -2.273124,1.939394 -4.43064,3.984521 -6.130653,6.448077 -1.309461,1.546916 -2.236989,4.042651 -3.2634833,6.365963 -0.9372976,2.325424 -1.3663353,4.046682 -1.7494144,6.150719 -0.6710501,4.068256 -0.590954,6.538597 -0.4335028,9.631058 0.3310288,5.294141 1.1592889,7.220206 1.768009,10.372993 0.7328615,2.677832 1.7433835,4.847778 2.7587935,7.008779 1.031659,2.61209 2.705517,4.930508 4.291457,7.289127 1.395519,2.450202 3.576351,5.139814 5.824121,7.849833 1.942519,1.962986 2.842983,3.44944 6.54556,5.870374 2.483108,1.418625 2.849911,1.694662 4.183082,2.259814 1.227214,0.27936 2.4963,0.520418 4.291457,0.280349 1.166942,-0.226219 2.261741,-0.386455 3.984921,-1.121406 1.22613,-0.467254 2.452264,-0.9345 3.678393,-1.401754 1.370893,-0.560705 2.714559,-1.121406 5.211053,-1.682107 1.634845,-0.19623 3.269682,-0.345827 4.904527,-0.280352 1.027716,-0.01543 2.738419,0.343931 5.211049,1.121402 1.537311,0.470084 2.379835,0.51654 5.517592,1.962459 1.331308,0.395563 2.180226,1.08526 4.291458,1.005283 2.028705,-0.255222 3.94505,-0.910564 5.409208,-1.682106 1.617323,-1.08269 3.52385,-1.900874 4.616587,-3.463333 1.319691,-1.125485 2.0951,-2.002068 2.848574,-2.868623 l 3.678389,-5.046316 c 1.17902,-1.284027 2.246159,-2.772698 3.136514,-4.584739 1.074376,-2.139962 1.898272,-4.509012 2.687608,-6.909663 z"
     id="path3975"
     style="fill:#000000;fill-opacity:1;fill-rule:nonzero;stroke:none" />
  <path
     d="m 49.924175,22.5737 c 0.03231,1.120496 0.803474,0.785881 1.235427,0.93167 1.625094,0.168533 2.422171,-0.230904 3.52513,-0.420527 2.133443,-0.559298 2.956148,-0.968747 3.984923,-1.401756 1.175043,-0.639369 2.350083,-1.100372 3.525126,-2.102633 1.108317,-0.736795 1.811574,-1.365799 2.758794,-2.382985 1.253317,-1.177792 1.672967,-1.734188 2.605526,-2.943687 1.037272,-1.38309 1.532664,-2.303554 2.298996,-3.784741 C 70.371983,9.2789214 70.991873,8.1372733 71.237494,6.8244755 71.508786,5.640232 71.852556,4.4891291 71.850559,3.179911 71.936744,2.5403824 71.739806,2.1598009 71.544024,1.7781552 70.769769,1.3602995 70.37088,1.3740297 69.469486,1.4326973 68.414243,1.4368249 67.063352,1.5852619 65.566639,2.198682 63.918245,2.8912978 62.341396,3.6275331 61.121914,4.5816668 59.819117,5.3292701 58.935893,6.076873 58.05659,6.8244755 c -1.067779,0.892429 -1.984093,1.9233901 -2.912061,2.9436874 -1.056014,1.1525961 -1.880093,2.1530411 -2.362479,3.1744791 -0.651084,1.137924 -1.103336,2.275848 -1.622448,3.413773 -0.551126,1.214392 -0.97323,2.487785 -1.235427,3.8343 -0.151156,0.84041 -0.111936,1.424544 0,2.382985 z"
     id="path4486"
     style="fill:#000000;fill-opacity:1;fill-rule:nonzero;stroke:none" />
</svg>
