<?xml version="1.0" encoding="UTF-8" standalone="no"?>
<!-- Created with Inkscape (http://www.inkscape.org/) -->

<svg
   xmlns:dc="http://purl.org/dc/elements/1.1/"
   xmlns:cc="http://creativecommons.org/ns#"
   xmlns:rdf="http://www.w3.org/1999/02/22-rdf-syntax-ns#"
   xmlns:svg="http://www.w3.org/2000/svg"
   xmlns="http://www.w3.org/2000/svg"
   xmlns:sodipodi="http://sodipodi.sourceforge.net/DTD/sodipodi-0.dtd"
   xmlns:inkscape="http://www.inkscape.org/namespaces/inkscape"
   width="5.8208332mm"
   height="5.8472919mm"
   viewBox="0 0 5.8208332 5.8472919"
   version="1.1"
   id="svg3750"
   inkscape:version="0.92.3 (2405546, 2018-03-11)"
   sodipodi:docname="network.svg">
  <defs
     id="defs3744" />
  <sodipodi:namedview
     id="base"
     pagecolor="#ffffff"
     bordercolor="#666666"
     borderopacity="1.0"
     inkscape:pageopacity="0.0"
     inkscape:pageshadow="2"
     inkscape:zoom="0.35"
     inkscape:cx="45.285715"
     inkscape:cy="-543.23571"
     inkscape:document-units="mm"
     inkscape:current-layer="layer1"
     showgrid="false"
     fit-margin-top="0"
     fit-margin-left="0"
     fit-margin-right="0"
     fit-margin-bottom="0"
     inkscape:window-width="2560"
     inkscape:window-height="1376"
     inkscape:window-x="0"
     inkscape:window-y="27"
     inkscape:window-maximized="1" />
  <metadata
     id="metadata3747">
    <rdf:RDF>
      <cc:Work
         rdf:about="">
        <dc:format>image/svg+xml</dc:format>
        <dc:type
           rdf:resource="http://purl.org/dc/dcmitype/StillImage" />
        <dc:title></dc:title>
      </cc:Work>
    </rdf:RDF>
  </metadata>
  <g
     inkscape:label="Layer 1"
     inkscape:groupmode="layer"
     id="layer1"
     transform="translate(-93.851488,0.74507442)">
    <path
       id="path642"
       d="m 98.74628,3.2501339 c -0.238125,0 -0.449792,0.1058334 -0.608542,0.238125 L 96.444405,2.4828423 c 0.02646,-0.1058334 0.02646,-0.1852084 0.02646,-0.2910417 0,-0.1058333 -0.02646,-0.2116667 -0.05292,-0.3175 L 98.11128,0.86888388 c 0.15875,0.15875002 0.396875,0.23812502 0.635,0.23812502 0.502708,0 0.926041,-0.42333332 0.926041,-0.92604165 0,-0.50270834 -0.423333,-0.92604167 -0.926041,-0.92604167 -0.502709,0 -0.926042,0.42333333 -0.926042,0.92604167 0,0.079375 0,0.15875003 0.02646,0.21166663 L 96.179821,1.3715923 c -0.238125,-0.3175 -0.608541,-0.50270842 -1.031875,-0.50270842 -0.714375,0 -1.296458,0.58208342 -1.296458,1.29645842 0,0.714375 0.582083,1.2964583 1.296458,1.2964583 0.423334,0 0.79375,-0.2116667 1.031875,-0.5027083 l 1.640417,0.9789583 c -0.02646,0.079375 -0.02646,0.15875 -0.02646,0.238125 0,0.5027083 0.423333,0.9260417 0.926042,0.9260417 0.502708,0 0.926041,-0.4233334 0.926041,-0.9260417 0,-0.5027083 -0.396875,-0.9260417 -0.899583,-0.9260417 z"
       inkscape:connector-curvature="0"
       style="stroke-width:0.26458332" />
  </g>
</svg>
