<?xml version="1.0" encoding="UTF-8" standalone="no"?>
<!-- Created with Inkscape (http://www.inkscape.org/) -->

<svg
   xmlns:dc="http://purl.org/dc/elements/1.1/"
   xmlns:cc="http://creativecommons.org/ns#"
   xmlns:rdf="http://www.w3.org/1999/02/22-rdf-syntax-ns#"
   xmlns:svg="http://www.w3.org/2000/svg"
   xmlns="http://www.w3.org/2000/svg"
   xmlns:sodipodi="http://sodipodi.sourceforge.net/DTD/sodipodi-0.dtd"
   xmlns:inkscape="http://www.inkscape.org/namespaces/inkscape"
   width="6.1449528mm"
   height="6.1383276mm"
   viewBox="0 0 6.1449528 6.1383276"
   version="1.1"
   id="svg3690"
   inkscape:version="0.92.3 (2405546, 2018-03-11)"
   sodipodi:docname="pen.svg">
  <defs
     id="defs3684" />
  <sodipodi:namedview
     id="base"
     pagecolor="#ffffff"
     bordercolor="#666666"
     borderopacity="1.0"
     inkscape:pageopacity="0.0"
     inkscape:pageshadow="2"
     inkscape:zoom="0.35"
     inkscape:cx="208.75536"
     inkscape:cy="-302.68572"
     inkscape:document-units="mm"
     inkscape:current-layer="layer1"
     showgrid="false"
     fit-margin-top="0"
     fit-margin-left="0"
     fit-margin-right="0"
     fit-margin-bottom="0"
     inkscape:window-width="2560"
     inkscape:window-height="1376"
     inkscape:window-x="0"
     inkscape:window-y="27"
     inkscape:window-maximized="1" />
  <metadata
     id="metadata3687">
    <rdf:RDF>
      <cc:Work
         rdf:about="">
        <dc:format>image/svg+xml</dc:format>
        <dc:type
           rdf:resource="http://purl.org/dc/dcmitype/StillImage" />
        <dc:title></dc:title>
      </cc:Work>
    </rdf:RDF>
  </metadata>
  <g
     inkscape:label="Layer 1"
     inkscape:groupmode="layer"
     id="layer1"
     transform="translate(-50.600144,-62.609408)">
    <polygon
       transform="matrix(0.26458333,0,0,0.26458333,-29.039438,-245.57726)"
       id="polygon1028"
       points="304.2,1181.7 301,1188 307.4,1184.9 " />
    <path
       id="path1030"
       d="m 56.685562,63.032742 -0.343958,-0.343959 c -0.105834,-0.105833 -0.264584,-0.105833 -0.370417,0 L 55.60077,63.0592 c -0.105833,-0.07937 -0.264583,-0.07937 -0.370416,0 l -0.132292,0.132292 H 54.64827 54.277854 l -1.534584,1.534583 v 0.370417 0 l 1.640417,-1.640417 h 0.449792 l -0.105834,0.105833 -3.148541,3.148542 1.084791,1.084792 3.65125,-3.65125 c 0.105834,-0.105834 0.105834,-0.264584 0,-0.370417 l 0.370417,-0.370417 c 0.07938,-0.105833 0.07938,-0.264583 0,-0.370416 z"
       inkscape:connector-curvature="0"
       style="stroke-width:0.26458332" />
  </g>
</svg>
