<?xml version="1.0" encoding="UTF-8" standalone="no"?>
<!-- Created with Inkscape (http://www.inkscape.org/) -->

<svg
   xmlns:dc="http://purl.org/dc/elements/1.1/"
   xmlns:cc="http://creativecommons.org/ns#"
   xmlns:rdf="http://www.w3.org/1999/02/22-rdf-syntax-ns#"
   xmlns:svg="http://www.w3.org/2000/svg"
   xmlns="http://www.w3.org/2000/svg"
   xmlns:sodipodi="http://sodipodi.sourceforge.net/DTD/sodipodi-0.dtd"
   xmlns:inkscape="http://www.inkscape.org/namespaces/inkscape"
   width="43.75"
   height="27.481251"
   id="svg3137"
   version="1.1"
   inkscape:version="0.48.4 r9939"
   sodipodi:docname="New document 9">
  <defs
     id="defs3139">
    <clipPath
       id="clipPath3159"
       clipPathUnits="userSpaceOnUse">
      <path
         id="path3161"
         d="M 0,48 48,48 48,0 0,0 0,48 z"
         inkscape:connector-curvature="0" />
    </clipPath>
  </defs>
  <sodipodi:namedview
     id="base"
     pagecolor="#ffffff"
     bordercolor="#666666"
     borderopacity="1.0"
     inkscape:pageopacity="0.0"
     inkscape:pageshadow="2"
     inkscape:zoom="0.35"
     inkscape:cx="21.874995"
     inkscape:cy="13.740622"
     inkscape:document-units="px"
     inkscape:current-layer="layer1"
     showgrid="false"
     fit-margin-top="0"
     fit-margin-left="0"
     fit-margin-right="0"
     fit-margin-bottom="0"
     inkscape:window-width="499"
     inkscape:window-height="442"
     inkscape:window-x="2010"
     inkscape:window-y="90"
     inkscape:window-maximized="0" />
  <metadata
     id="metadata3142">
    <rdf:RDF>
      <cc:Work
         rdf:about="">
        <dc:format>image/svg+xml</dc:format>
        <dc:type
           rdf:resource="http://purl.org/dc/dcmitype/StillImage" />
        <dc:title></dc:title>
      </cc:Work>
    </rdf:RDF>
  </metadata>
  <g
     inkscape:label="Layer 1"
     inkscape:groupmode="layer"
     id="layer1"
     transform="translate(-353.125,-518.62156)">
    <g
       transform="matrix(1.25,0,0,-1.25,348.12513,563.62193)"
       inkscape:label="glyphicons_44"
       id="g3153">
      <g
         id="g3155">
        <g
           clip-path="url(#clipPath3159)"
           id="g3157">
          <g
             transform="translate(38.0879,21.3223)"
             id="g3163">
            <path
               id="path3165"
               style="fill:#000000;fill-opacity:1;fill-rule:nonzero;stroke:none"
               d="m 0,0 c -0.449,0.255 -3.088,1.983 -5.088,2.591 l 0,2.628 c 1,0.316 1,0.805 1,1.546 l 0,1.783 c 0,1.722 -0.913,3.13 -3,3.13 -2.087,0 -3,-1.408 -3,-3.13 l 0,-1.783 c 0,-0.748 0,-1.238 1,-1.554 l 0,-2.62 c -0.579,-0.176 -1.209,-0.448 -1.826,-0.749 1.915,-0.953 4.201,-2.278 5.21,-2.862 l 0.358,-0.207 c 1.016,-0.577 1.463,-1.273 1.645,-2.095 l 4.427,0 c 0.102,0 0.186,0.133 0.186,0.233 l 0,1.739 C 0.912,-0.617 0.557,-0.316 0,0 m -27.829,-1.227 0.139,0.081 c 2.281,1.3 4.101,2.294 5.451,2.976 -0.624,0.305 -1.263,0.583 -1.849,0.761 l 0,2.628 c 1,0.316 1,0.805 1,1.546 l 0,1.783 c 0,1.722 -0.913,3.13 -3,3.13 -2.087,0 -3,-1.408 -3,-3.13 l 0,-1.783 c 0,-0.748 0,-1.238 1,-1.554 l 0,-2.62 c -2,-0.608 -4.639,-2.336 -5.088,-2.591 -0.556,-0.316 -0.912,-0.617 -0.912,-1.35 l 0,-1.739 c 0,-0.1 0.084,-0.233 0.187,-0.233 l 4.426,0 c 0.182,0.822 0.629,1.518 1.646,2.095 m 22.741,-3.244 0,-2.5 c 0,-0.145 -0.121,-0.336 -0.267,-0.336 l -22.465,0 c -0.147,0 -0.268,0.191 -0.268,0.336 l 0,2.5 c 0,1.053 0.199,1.486 1,1.941 0.644,0.366 4.968,2.85 7,3.723 l 0,3.767 c -0.624,0.454 -1,1.158 -1,2.233 l 0,2.985 c 0,2.474 1.5,4.5 4.5,4.5 3,0 4.5,-2.026 4.5,-4.5 l 0,-2.985 c 0,-1.064 -0.376,-1.766 -1,-2.222 l 0,-3.778 c 2.157,-0.873 6.357,-3.357 7,-3.723 0.801,-0.455 1,-0.888 1,-1.941"
               inkscape:connector-curvature="0" />
          </g>
        </g>
      </g>
    </g>
  </g>
</svg>
