<?xml version="1.0" encoding="UTF-8" standalone="no"?>
<svg
   viewBox="0 0 26 21.141287"
   version="1.1"
   id="svg1"
   sodipodi:docname="twitter.svg"
   width="26"
   height="21.141287"
   inkscape:version="1.4.2 (ebf0e940d0, 2025-05-08)"
   xmlns:inkscape="http://www.inkscape.org/namespaces/inkscape"
   xmlns:sodipodi="http://sodipodi.sourceforge.net/DTD/sodipodi-0.dtd"
   xmlns="http://www.w3.org/2000/svg"
   xmlns:svg="http://www.w3.org/2000/svg">
  <defs
     id="defs1" />
  <sodipodi:namedview
     id="namedview1"
     pagecolor="#ffffff"
     bordercolor="#000000"
     borderopacity="0.25"
     inkscape:showpageshadow="2"
     inkscape:pageopacity="0.0"
     inkscape:pagecheckerboard="0"
     inkscape:deskcolor="#d1d1d1"
     inkscape:zoom="36.25"
     inkscape:cx="13.006897"
     inkscape:cy="11.089655"
     inkscape:window-width="1821"
     inkscape:window-height="1109"
     inkscape:window-x="26"
     inkscape:window-y="23"
     inkscape:window-maximized="0"
     inkscape:current-layer="svg1" />
  <path
     id="twitter"
     d="m 23.33651,5.2749253 c 0.01043,0.22891 0.01043,0.45778 0.01043,0.6867 A 15.18194,15.18194 0 0 1 0,18.758725 a 10.26487,10.26487 0 0 0 1.26929,0.07283 10.70029,10.70029 0 0 0 6.62747,-2.28891 5.33486,5.33486 0 0 1 -4.9836,-3.70387 5.36636,5.36636 0 0 0 2.40336,-0.09364 5.34632,5.34632 0 0 1 -4.2761,-5.2333097 v -0.07283 a 5.39627,5.39627 0 0 0 2.41374,0.6659 A 5.35659,5.35659 0 0 1 1.79991,0.97802525 15.1498,15.1498 0 0 0 12.7971,6.5546453 5.89821,5.89821 0 0 1 12.66186,5.3373753 5.33642,5.33642 0 0 1 21.89033,1.6854853 10.61188,10.61188 0 0 0 25.28213,0.39538525 5.368,5.368 0 0 1 22.93076,3.3501553 10.81127,10.81127 0 0 0 26,2.5074153 a 10.868,10.868 0 0 1 -2.66349,2.76751 z"
     fill="#262626" />
</svg>
