<?xml version="1.0" encoding="UTF-8" standalone="no"?>
<!-- Created with Inkscape (http://www.inkscape.org/) -->

<svg
   xmlns:dc="http://purl.org/dc/elements/1.1/"
   xmlns:cc="http://creativecommons.org/ns#"
   xmlns:rdf="http://www.w3.org/1999/02/22-rdf-syntax-ns#"
   xmlns:svg="http://www.w3.org/2000/svg"
   xmlns="http://www.w3.org/2000/svg"
   xmlns:sodipodi="http://sodipodi.sourceforge.net/DTD/sodipodi-0.dtd"
   xmlns:inkscape="http://www.inkscape.org/namespaces/inkscape"
   width="30"
   height="30"
   id="svg3100"
   version="1.1"
   inkscape:version="0.48.4 r9939"
   sodipodi:docname="New document 7">
  <defs
     id="defs3102">
    <clipPath
       id="clipPath3122"
       clipPathUnits="userSpaceOnUse">
      <path
         id="path3124"
         d="M 0,48 48,48 48,0 0,0 0,48 z"
         inkscape:connector-curvature="0" />
    </clipPath>
  </defs>
  <sodipodi:namedview
     id="base"
     pagecolor="#ffffff"
     bordercolor="#666666"
     borderopacity="1.0"
     inkscape:pageopacity="0.0"
     inkscape:pageshadow="2"
     inkscape:zoom="0.35"
     inkscape:cx="15"
     inkscape:cy="14.999997"
     inkscape:document-units="px"
     inkscape:current-layer="layer1"
     showgrid="false"
     fit-margin-top="0"
     fit-margin-left="0"
     fit-margin-right="0"
     fit-margin-bottom="0"
     inkscape:window-width="499"
     inkscape:window-height="442"
     inkscape:window-x="2040"
     inkscape:window-y="120"
     inkscape:window-maximized="0" />
  <metadata
     id="metadata3105">
    <rdf:RDF>
      <cc:Work
         rdf:about="">
        <dc:format>image/svg+xml</dc:format>
        <dc:type
           rdf:resource="http://purl.org/dc/dcmitype/StillImage" />
        <dc:title></dc:title>
      </cc:Work>
    </rdf:RDF>
  </metadata>
  <g
     inkscape:label="Layer 1"
     inkscape:groupmode="layer"
     id="layer1"
     transform="translate(-360,-517.36218)">
    <g
       transform="matrix(1.25,0,0,-1.25,345,562.36218)"
       inkscape:label="social_45"
       id="g3116">
      <g
         id="g3118">
        <g
           clip-path="url(#clipPath3122)"
           id="g3120">
          <g
             transform="translate(30,24.709)"
             id="g3126">
            <path
               id="path3128"
               style="fill:#000000;fill-opacity:1;fill-rule:nonzero;stroke:none"
               d="m 0,0 -7.226,0 0,5.238 L 0,6.291 0,0 z m 0,-6.877 -7.226,1.067 0,5.301 7.226,0 0,-6.368 z M -7.736,0 l -5.282,0 0,4.398 5.282,0.764 0,-5.162 z m 0,-5.735 -5.282,0.772 0,4.454 5.282,0 0,-5.226 z M 3.5,11.291 l -19,0 c -1.375,0 -2.5,-1.125 -2.5,-2.5 l 0,-19 c 0,-1.375 1.125,-2.5 2.5,-2.5 l 19,0 c 1.375,0 2.5,1.125 2.5,2.5 l 0,19 c 0,1.375 -1.125,2.5 -2.5,2.5"
               inkscape:connector-curvature="0" />
          </g>
        </g>
      </g>
    </g>
  </g>
</svg>
