<?xml version="1.0" encoding="UTF-8" standalone="no"?>
<!-- Created with Inkscape (http://www.inkscape.org/) -->

<svg
   xmlns:dc="http://purl.org/dc/elements/1.1/"
   xmlns:cc="http://creativecommons.org/ns#"
   xmlns:rdf="http://www.w3.org/1999/02/22-rdf-syntax-ns#"
   xmlns:svg="http://www.w3.org/2000/svg"
   xmlns="http://www.w3.org/2000/svg"
   xmlns:sodipodi="http://sodipodi.sourceforge.net/DTD/sodipodi-0.dtd"
   xmlns:inkscape="http://www.inkscape.org/namespaces/inkscape"
   version="1.1"
   id="svg2"
   xml:space="preserve"
   width="2690.0496"
   height="678.95068"
   viewBox="0 0 2690.0496 678.95068"
   sodipodi:docname="cgal_2013_grey.svg"
   inkscape:version="0.92.3 (2405546, 2018-03-11)"><metadata
     id="metadata8"><rdf:RDF><cc:Work
         rdf:about=""><dc:format>image/svg+xml</dc:format><dc:type
           rdf:resource="http://purl.org/dc/dcmitype/StillImage" /><dc:title></dc:title></cc:Work></rdf:RDF></metadata><defs
     id="defs6" /><sodipodi:namedview
     pagecolor="#ffffff"
     bordercolor="#666666"
     borderopacity="1"
     objecttolerance="10"
     gridtolerance="10"
     guidetolerance="10"
     inkscape:pageopacity="0"
     inkscape:pageshadow="2"
     inkscape:window-width="3200"
     inkscape:window-height="1739"
     id="namedview4"
     showgrid="false"
     inkscape:zoom="0.23568339"
     inkscape:cx="258.8218"
     inkscape:cy="339.47534"
     inkscape:window-x="0"
     inkscape:window-y="0"
     inkscape:window-maximized="1"
     inkscape:current-layer="g10" /><g
     id="g10"
     inkscape:groupmode="layer"
     inkscape:label="cgal_2013_grey"
     transform="matrix(1.3333333,0,0,-1.3333333,-110.71053,843.144)"><g
       id="g12"><path
         d="M 2055.93,429.267 1671.35,205.272"
         style="fill:none;stroke:#bebebe;stroke-width:2;stroke-linecap:butt;stroke-linejoin:round;stroke-miterlimit:10;stroke-dasharray:none;stroke-opacity:1"
         id="path14"
         inkscape:connector-curvature="0" /></g><g
       id="g16"><path
         d="m 714.708,204.379 v 384 h 384.002 v -384 z"
         style="fill:none;stroke:#bebebe;stroke-width:2;stroke-linecap:butt;stroke-linejoin:round;stroke-miterlimit:10;stroke-dasharray:none;stroke-opacity:1"
         id="path18"
         inkscape:connector-curvature="0" /></g><g
       id="g20"><path
         d="m 907.164,588.379 v -384"
         style="fill:none;stroke:#bebebe;stroke-width:2;stroke-linecap:butt;stroke-linejoin:round;stroke-miterlimit:10;stroke-dasharray:none;stroke-opacity:1"
         id="path22"
         inkscape:connector-curvature="0" /></g><g
       id="g24"><path
         d="M 715.164,396.379 H 1099.16"
         style="fill:none;stroke:#bebebe;stroke-width:2;stroke-linecap:butt;stroke-linejoin:round;stroke-miterlimit:10;stroke-dasharray:none;stroke-opacity:1"
         id="path26"
         inkscape:connector-curvature="0" /></g><g
       id="g28"><path
         d="m 939.164,396.379 c 0,17.673 -14.327,32 -32,32 -17.673,0 -32,-14.327 -32,-32 0,-17.673 14.327,-32 32,-32 17.673,0 32,14.327 32,32"
         style="fill:none;stroke:#bebebe;stroke-width:2;stroke-linecap:butt;stroke-linejoin:round;stroke-miterlimit:10;stroke-dasharray:none;stroke-opacity:1"
         id="path30"
         inkscape:connector-curvature="0" /></g><g
       id="g32"><path
         d="m 1018.1,204.379 -221.867,384"
         style="fill:none;stroke:#bebebe;stroke-width:2;stroke-linecap:butt;stroke-linejoin:round;stroke-miterlimit:10;stroke-dasharray:none;stroke-opacity:1"
         id="path34"
         inkscape:connector-curvature="0" /></g><g
       id="g36"><path
         d="M 715.164,285.448 1099.16,507.31"
         style="fill:none;stroke:#bebebe;stroke-width:2;stroke-linecap:butt;stroke-linejoin:round;stroke-miterlimit:10;stroke-dasharray:none;stroke-opacity:1"
         id="path38"
         inkscape:connector-curvature="0" /></g><g
       id="g40"><path
         d="m 787.117,548.772 47.991,27.718"
         style="fill:none;stroke:#bebebe;stroke-width:2;stroke-linecap:butt;stroke-linejoin:round;stroke-miterlimit:10;stroke-dasharray:none;stroke-opacity:1"
         id="path42"
         inkscape:connector-curvature="0" /></g><g
       id="g44"><path
         d="m 803.126,521.054 47.991,27.718"
         style="fill:none;stroke:#bebebe;stroke-width:2;stroke-linecap:butt;stroke-linejoin:round;stroke-miterlimit:10;stroke-dasharray:none;stroke-opacity:1"
         id="path46"
         inkscape:connector-curvature="0" /></g><g
       id="g48"><path
         d="m 1058.34,380.37 c 0,98.795 -80.089,178.885 -178.884,178.885 -98.795,0 -178.885,-80.09 -178.885,-178.885 0,-98.795 80.09,-178.885 178.885,-178.885 98.795,0 178.884,80.09 178.884,178.885"
         style="fill:none;stroke:#bebebe;stroke-width:2;stroke-linecap:butt;stroke-linejoin:round;stroke-miterlimit:10;stroke-dasharray:none;stroke-opacity:1"
         id="path50"
         inkscape:connector-curvature="0" /></g><g
       id="g52"><path
         d="m 1147.2,368.656 c 0,123.724 -100.3,224.022 -224.019,224.022 -123.724,0 -224.022,-100.298 -224.022,-224.022 0,-123.724 100.298,-224.022 224.022,-224.022 123.719,0 224.019,100.298 224.019,224.022"
         style="fill:none;stroke:#bebebe;stroke-width:2;stroke-linecap:butt;stroke-linejoin:round;stroke-miterlimit:10;stroke-dasharray:none;stroke-opacity:1"
         id="path54"
         inkscape:connector-curvature="0" /></g><g
       id="g56"><path
         d="m 944.92,591.621 c 65.81,-6.416 128.89,-29.496 183.3,-67.06"
         style="fill:none;stroke:#bebebe;stroke-width:2;stroke-linecap:butt;stroke-linejoin:round;stroke-miterlimit:10;stroke-dasharray:none;stroke-opacity:1"
         id="path58"
         inkscape:connector-curvature="0" /></g><g
       id="g60"><path
         d="m 907.164,556.375 c 81.501,0 160.476,-28.282 223.446,-80.019"
         style="fill:none;stroke:#bebebe;stroke-width:2;stroke-linecap:butt;stroke-linejoin:round;stroke-miterlimit:10;stroke-dasharray:none;stroke-opacity:1"
         id="path62"
         inkscape:connector-curvature="0" /></g><g
       id="g64"><path
         d="m 907.164,236.383 c 77.48,0 152.796,25.564 214.266,72.728"
         style="fill:none;stroke:#bebebe;stroke-width:2;stroke-linecap:butt;stroke-linejoin:round;stroke-miterlimit:10;stroke-dasharray:none;stroke-opacity:1"
         id="path66"
         inkscape:connector-curvature="0" /></g><g
       id="g68"><path
         d="m 854.746,203.2 c 91.825,-12.496 185.094,8.223 262.994,58.423"
         style="fill:none;stroke:#bebebe;stroke-width:2;stroke-linecap:butt;stroke-linejoin:round;stroke-miterlimit:10;stroke-dasharray:none;stroke-opacity:1"
         id="path70"
         inkscape:connector-curvature="0" /></g><g
       id="g72"><path
         d="m 1018.1,204.379 c 12.01,44.89 13.9,91.89 5.52,137.599"
         style="fill:none;stroke:#bebebe;stroke-width:2;stroke-linecap:butt;stroke-linejoin:round;stroke-miterlimit:10;stroke-dasharray:none;stroke-opacity:1"
         id="path74"
         inkscape:connector-curvature="0" /></g><g
       id="g76"><path
         d="m 1028.76,588.379 c 0,-38.739 -7.18,-77.142 -21.17,-113.266"
         style="fill:none;stroke:#bebebe;stroke-width:2;stroke-linecap:butt;stroke-linejoin:round;stroke-miterlimit:10;stroke-dasharray:none;stroke-opacity:1"
         id="path78"
         inkscape:connector-curvature="0" /></g><g
       id="g80"><path
         d="m 1018.75,514.331 c 0,17.673 -14.33,32 -32.005,32 -17.673,0 -32,-14.327 -32,-32 0,-17.673 14.327,-32 32,-32 17.675,0 32.005,14.327 32.005,32"
         style="fill:none;stroke:#bebebe;stroke-width:2;stroke-linecap:butt;stroke-linejoin:round;stroke-miterlimit:10;stroke-dasharray:none;stroke-opacity:1"
         id="path82"
         inkscape:connector-curvature="0" /></g><g
       id="g84"><path
         d="m 1028.76,588.379 v -384"
         style="fill:none;stroke:#bebebe;stroke-width:2;stroke-linecap:butt;stroke-linejoin:round;stroke-miterlimit:10;stroke-dasharray:none;stroke-opacity:1"
         id="path86"
         inkscape:connector-curvature="0" /></g><g
       id="g88"><path
         d="M 907.164,364.379 H 1099.16"
         style="fill:none;stroke:#bebebe;stroke-width:2;stroke-linecap:butt;stroke-linejoin:round;stroke-miterlimit:10;stroke-dasharray:none;stroke-opacity:1"
         id="path90"
         inkscape:connector-curvature="0" /></g><g
       id="g92"><path
         d="m 1028.76,364.379 c 0,17.673 -14.33,32 -32.005,32 -17.673,0 -32,-14.327 -32,-32 0,-17.673 14.327,-32 32,-32 17.675,0 32.005,14.327 32.005,32"
         style="fill:none;stroke:#bebebe;stroke-width:2;stroke-linecap:butt;stroke-linejoin:round;stroke-miterlimit:10;stroke-dasharray:none;stroke-opacity:1"
         id="path94"
         inkscape:connector-curvature="0" /></g><g
       id="g96"><path
         d="m 1092.76,332.379 c 0,17.673 -14.33,32 -32,32 -17.68,0 -32,-14.327 -32,-32 0,-17.673 14.32,-32 32,-32 17.67,0 32,14.327 32,32"
         style="fill:none;stroke:#bebebe;stroke-width:2;stroke-linecap:butt;stroke-linejoin:round;stroke-miterlimit:10;stroke-dasharray:none;stroke-opacity:1"
         id="path98"
         inkscape:connector-curvature="0" /></g><g
       id="g100"><path
         d="m 964.755,204.379 v 160"
         style="fill:none;stroke:#bebebe;stroke-width:2;stroke-linecap:butt;stroke-linejoin:round;stroke-miterlimit:10;stroke-dasharray:none;stroke-opacity:1"
         id="path102"
         inkscape:connector-curvature="0" /></g><g
       id="g104"><path
         d="m 964.755,332.379 c 0,17.673 -14.327,32 -32,32 -17.673,0 -32,-14.327 -32,-32 0,-17.673 14.327,-32 32,-32 17.673,0 32,14.327 32,32"
         style="fill:none;stroke:#bebebe;stroke-width:2;stroke-linecap:butt;stroke-linejoin:round;stroke-miterlimit:10;stroke-dasharray:none;stroke-opacity:1"
         id="path106"
         inkscape:connector-curvature="0" /></g><g
       id="g108"><path
         d="m 231.878,203.314 v 384 h 384 v -384 z"
         style="fill:none;stroke:#bebebe;stroke-width:2;stroke-linecap:butt;stroke-linejoin:round;stroke-miterlimit:10;stroke-dasharray:none;stroke-opacity:1"
         id="path110"
         inkscape:connector-curvature="0" /></g><g
       id="g112"><path
         d="m 423.878,587.314 v -384"
         style="fill:none;stroke:#bebebe;stroke-width:2;stroke-linecap:butt;stroke-linejoin:round;stroke-miterlimit:10;stroke-dasharray:none;stroke-opacity:1"
         id="path114"
         inkscape:connector-curvature="0" /></g><g
       id="g116"><path
         d="m 231.878,395.314 h 384"
         style="fill:none;stroke:#bebebe;stroke-width:2;stroke-linecap:butt;stroke-linejoin:round;stroke-miterlimit:10;stroke-dasharray:none;stroke-opacity:1"
         id="path118"
         inkscape:connector-curvature="0" /></g><g
       id="g120"><path
         d="m 455.878,395.314 c 0,17.673 -14.327,32 -32,32 -17.673,0 -32,-14.327 -32,-32 0,-17.673 14.327,-32 32,-32 17.673,0 32,14.327 32,32"
         style="fill:none;stroke:#bebebe;stroke-width:2;stroke-linecap:butt;stroke-linejoin:round;stroke-miterlimit:10;stroke-dasharray:none;stroke-opacity:1"
         id="path122"
         inkscape:connector-curvature="0" /></g><g
       id="g124"><path
         d="m 534.809,203.314 -221.862,384"
         style="fill:none;stroke:#bebebe;stroke-width:2;stroke-linecap:butt;stroke-linejoin:round;stroke-miterlimit:10;stroke-dasharray:none;stroke-opacity:1"
         id="path126"
         inkscape:connector-curvature="0" /></g><g
       id="g128"><path
         d="m 231.878,284.383 384,221.862"
         style="fill:none;stroke:#bebebe;stroke-width:2;stroke-linecap:butt;stroke-linejoin:round;stroke-miterlimit:10;stroke-dasharray:none;stroke-opacity:1"
         id="path130"
         inkscape:connector-curvature="0" /></g><g
       id="g132"><path
         d="m 303.831,547.707 47.991,27.718"
         style="fill:none;stroke:#bebebe;stroke-width:2;stroke-linecap:butt;stroke-linejoin:round;stroke-miterlimit:10;stroke-dasharray:none;stroke-opacity:1"
         id="path134"
         inkscape:connector-curvature="0" /></g><g
       id="g136"><path
         d="m 319.84,519.989 47.991,27.718"
         style="fill:none;stroke:#bebebe;stroke-width:2;stroke-linecap:butt;stroke-linejoin:round;stroke-miterlimit:10;stroke-dasharray:none;stroke-opacity:1"
         id="path138"
         inkscape:connector-curvature="0" /></g><g
       id="g140"><path
         d="m 575.055,379.305 c 0,98.796 -80.09,178.885 -178.885,178.885 -98.795,0 -178.885,-80.089 -178.885,-178.885 0,-98.795 80.09,-178.885 178.885,-178.885 98.795,0 178.885,80.09 178.885,178.885"
         style="fill:none;stroke:#bebebe;stroke-width:2;stroke-linecap:butt;stroke-linejoin:round;stroke-miterlimit:10;stroke-dasharray:none;stroke-opacity:1"
         id="path142"
         inkscape:connector-curvature="0" /></g><g
       id="g144"><path
         d="m 663.917,367.591 c 0,123.724 -100.298,224.022 -224.022,224.022 -123.724,0 -224.022,-100.298 -224.022,-224.022 0,-123.724 100.298,-224.022 224.022,-224.022 123.724,0 224.022,100.298 224.022,224.022"
         style="fill:none;stroke:#bebebe;stroke-width:2;stroke-linecap:butt;stroke-linejoin:round;stroke-miterlimit:10;stroke-dasharray:none;stroke-opacity:1"
         id="path146"
         inkscape:connector-curvature="0" /></g><g
       id="g148"><path
         d="m 461.841,590.556 c 65.805,-6.416 128.89,-29.496 183.299,-67.06"
         style="fill:none;stroke:#bebebe;stroke-width:2;stroke-linecap:butt;stroke-linejoin:round;stroke-miterlimit:10;stroke-dasharray:none;stroke-opacity:1"
         id="path150"
         inkscape:connector-curvature="0" /></g><g
       id="g152"><path
         d="m 423.878,555.31 c 81.501,0 160.476,-28.281 223.449,-80.019"
         style="fill:none;stroke:#bebebe;stroke-width:2;stroke-linecap:butt;stroke-linejoin:round;stroke-miterlimit:10;stroke-dasharray:none;stroke-opacity:1"
         id="path154"
         inkscape:connector-curvature="0" /></g><g
       id="g156"><path
         d="m 423.878,235.318 c 77.48,0 152.796,25.564 214.267,72.728"
         style="fill:none;stroke:#bebebe;stroke-width:2;stroke-linecap:butt;stroke-linejoin:round;stroke-miterlimit:10;stroke-dasharray:none;stroke-opacity:1"
         id="path158"
         inkscape:connector-curvature="0" /></g><g
       id="g160"><path
         d="m 371.46,202.135 c 91.825,-12.496 185.093,8.224 262.99,58.423"
         style="fill:none;stroke:#bebebe;stroke-width:2;stroke-linecap:butt;stroke-linejoin:round;stroke-miterlimit:10;stroke-dasharray:none;stroke-opacity:1"
         id="path162"
         inkscape:connector-curvature="0" /></g><g
       id="g164"><path
         d="m 534.809,203.314 c 12.016,44.89 13.904,91.89 5.528,137.599"
         style="fill:none;stroke:#bebebe;stroke-width:2;stroke-linecap:butt;stroke-linejoin:round;stroke-miterlimit:10;stroke-dasharray:none;stroke-opacity:1"
         id="path166"
         inkscape:connector-curvature="0" /></g><g
       id="g168"><path
         d="m 545.469,587.314 c 0,-38.739 -7.178,-77.142 -21.17,-113.266"
         style="fill:none;stroke:#bebebe;stroke-width:2;stroke-linecap:butt;stroke-linejoin:round;stroke-miterlimit:10;stroke-dasharray:none;stroke-opacity:1"
         id="path170"
         inkscape:connector-curvature="0" /></g><g
       id="g172"><path
         d="m 535.459,513.266 c 0,17.673 -14.327,32 -32,32 -17.673,0 -32,-14.327 -32,-32 0,-17.673 14.327,-32 32,-32 17.673,0 32,14.327 32,32"
         style="fill:none;stroke:#bebebe;stroke-width:2;stroke-linecap:butt;stroke-linejoin:round;stroke-miterlimit:10;stroke-dasharray:none;stroke-opacity:1"
         id="path174"
         inkscape:connector-curvature="0" /></g><g
       id="g176"><path
         d="m 544.782,302.047 c -0.247,33.5 -27.603,60.457 -61.103,60.211 -33.5,-0.246 -60.457,-27.603 -60.211,-61.103 0.247,-33.5 27.603,-60.457 61.103,-60.211 33.5,0.247 60.457,27.603 60.211,61.103"
         style="fill:none;stroke:#bebebe;stroke-width:2;stroke-linecap:butt;stroke-linejoin:round;stroke-miterlimit:10;stroke-dasharray:none;stroke-opacity:1"
         id="path178"
         inkscape:connector-curvature="0" /></g><g
       id="g180"><path
         d="m 1190.45,204.908 v 384 h 384 v -384 z"
         style="fill:none;stroke:#bebebe;stroke-width:2;stroke-linecap:butt;stroke-linejoin:round;stroke-miterlimit:10;stroke-dasharray:none;stroke-opacity:1"
         id="path182"
         inkscape:connector-curvature="0" /></g><g
       id="g184"><path
         d="m 1382.45,588.908 v -384"
         style="fill:none;stroke:#bebebe;stroke-width:2;stroke-linecap:butt;stroke-linejoin:round;stroke-miterlimit:10;stroke-dasharray:none;stroke-opacity:1"
         id="path186"
         inkscape:connector-curvature="0" /></g><g
       id="g188"><path
         d="m 1190.45,396.908 h 384"
         style="fill:none;stroke:#bebebe;stroke-width:2;stroke-linecap:butt;stroke-linejoin:round;stroke-miterlimit:10;stroke-dasharray:none;stroke-opacity:1"
         id="path190"
         inkscape:connector-curvature="0" /></g><g
       id="g192"><path
         d="m 1542.45,204.908 c 0,17.673 -14.33,32 -32,32 -17.68,0 -32,-14.327 -32,-32 0,-17.674 14.32,-32 32,-32 17.67,0 32,14.326 32,32"
         style="fill:none;stroke:#bebebe;stroke-width:2;stroke-linecap:butt;stroke-linejoin:round;stroke-miterlimit:10;stroke-dasharray:none;stroke-opacity:1"
         id="path194"
         inkscape:connector-curvature="0" /></g><g
       id="g196"><path
         d="m 1607.78,363.575 c 0,124.448 -100.89,225.333 -225.33,225.333 -124.45,0 -225.34,-100.885 -225.34,-225.333 0,-124.448 100.89,-225.333 225.34,-225.333 124.44,0 225.33,100.885 225.33,225.333"
         style="fill:none;stroke:#bebebe;stroke-width:2;stroke-linecap:butt;stroke-linejoin:round;stroke-miterlimit:10;stroke-dasharray:none;stroke-opacity:1"
         id="path198"
         inkscape:connector-curvature="0" /></g><g
       id="g200"><path
         d="m 1318.45,204.908 c 0,17.673 -14.33,32 -32,32 -17.68,0 -32,-14.327 -32,-32 0,-17.674 14.32,-32 32,-32 17.67,0 32,14.326 32,32"
         style="fill:none;stroke:#bebebe;stroke-width:2;stroke-linecap:butt;stroke-linejoin:round;stroke-miterlimit:10;stroke-dasharray:none;stroke-opacity:1"
         id="path202"
         inkscape:connector-curvature="0" /></g><g
       id="g204"><path
         d="m 1270.45,204.908 128,384"
         style="fill:none;stroke:#bebebe;stroke-width:2;stroke-linecap:butt;stroke-linejoin:round;stroke-miterlimit:10;stroke-dasharray:none;stroke-opacity:1"
         id="path206"
         inkscape:connector-curvature="0" /></g><g
       id="g208"><path
         d="m 1478.45,204.908 -160,384"
         style="fill:none;stroke:#bebebe;stroke-width:2;stroke-linecap:butt;stroke-linejoin:round;stroke-miterlimit:10;stroke-dasharray:none;stroke-opacity:1"
         id="path210"
         inkscape:connector-curvature="0" /></g><g
       id="g212"><path
         d="m 1622.42,252.884 c 0,26.496 -21.48,47.975 -47.97,47.975 -26.5,0 -47.98,-21.479 -47.98,-47.975 0,-26.497 21.48,-47.976 47.98,-47.976 26.49,0 47.97,21.479 47.97,47.976"
         style="fill:none;stroke:#bebebe;stroke-width:2;stroke-linecap:butt;stroke-linejoin:round;stroke-miterlimit:10;stroke-dasharray:none;stroke-opacity:1"
         id="path214"
         inkscape:connector-curvature="0" /></g><g
       id="g216"><path
         d="m 1234.85,249.312 c 0,24.523 -19.88,44.403 -44.4,44.403 -24.53,0 -44.41,-19.88 -44.41,-44.403 0,-24.524 19.88,-44.404 44.41,-44.404 24.52,0 44.4,19.88 44.4,44.404"
         style="fill:none;stroke:#bebebe;stroke-width:2;stroke-linecap:butt;stroke-linejoin:round;stroke-miterlimit:10;stroke-dasharray:none;stroke-opacity:1"
         id="path218"
         inkscape:connector-curvature="0" /></g><g
       id="g220"><path
         d="m 1346.97,236.908 c 0,17.716 -14.36,32.078 -32.07,32.078 -17.72,0 -32.08,-14.362 -32.08,-32.078 0,-17.717 14.36,-32.078 32.08,-32.078 17.71,0 32.07,14.361 32.07,32.078"
         style="fill:none;stroke:#bebebe;stroke-width:2;stroke-linecap:butt;stroke-linejoin:round;stroke-miterlimit:10;stroke-dasharray:none;stroke-opacity:1"
         id="path222"
         inkscape:connector-curvature="0" /></g><g
       id="g224"><path
         d="m 1470.44,220.908 c 0,8.836 -7.16,16 -16,16 -8.83,0 -16,-7.164 -16,-16 0,-8.837 7.17,-16 16,-16 8.84,0 16,7.163 16,16"
         style="fill:none;stroke:#bebebe;stroke-width:2;stroke-linecap:butt;stroke-linejoin:round;stroke-miterlimit:10;stroke-dasharray:none;stroke-opacity:1"
         id="path226"
         inkscape:connector-curvature="0" /></g><g
       id="g228"><path
         d="m 1222.45,396.908 c 0,17.673 -14.33,32 -32,32 -17.68,0 -32,-14.327 -32,-32 0,-17.674 14.32,-32 32,-32 17.67,0 32,14.326 32,32"
         style="fill:none;stroke:#bebebe;stroke-width:2;stroke-linecap:butt;stroke-linejoin:round;stroke-miterlimit:10;stroke-dasharray:none;stroke-opacity:1"
         id="path230"
         inkscape:connector-curvature="0" /></g><g
       id="g232"><path
         d="m 1606.45,396.908 c 0,17.673 -14.33,32 -32,32 -17.68,0 -32,-14.327 -32,-32 0,-17.674 14.32,-32 32,-32 17.67,0 32,14.326 32,32"
         style="fill:none;stroke:#bebebe;stroke-width:2;stroke-linecap:butt;stroke-linejoin:round;stroke-miterlimit:10;stroke-dasharray:none;stroke-opacity:1"
         id="path234"
         inkscape:connector-curvature="0" /></g><g
       id="g236"><path
         d="m 1190.45,364.908 h 384"
         style="fill:none;stroke:#bebebe;stroke-width:2;stroke-linecap:butt;stroke-linejoin:round;stroke-miterlimit:10;stroke-dasharray:none;stroke-opacity:1"
         id="path238"
         inkscape:connector-curvature="0" /></g><g
       id="g240"><path
         d="m 1190.45,332.908 h 384"
         style="fill:none;stroke:#bebebe;stroke-width:2;stroke-linecap:butt;stroke-linejoin:round;stroke-miterlimit:10;stroke-dasharray:none;stroke-opacity:1"
         id="path242"
         inkscape:connector-curvature="0" /></g><g
       id="g244"><path
         d="m 1671.93,205.272 v 384 h 384 v -384 z"
         style="fill:none;stroke:#bebebe;stroke-width:2;stroke-linecap:butt;stroke-linejoin:round;stroke-miterlimit:10;stroke-dasharray:none;stroke-opacity:1"
         id="path246"
         inkscape:connector-curvature="0" /></g><g
       id="g248"><path
         d="m 1863.35,589.272 v -384"
         style="fill:none;stroke:#bebebe;stroke-width:2;stroke-linecap:butt;stroke-linejoin:round;stroke-miterlimit:10;stroke-dasharray:none;stroke-opacity:1"
         id="path250"
         inkscape:connector-curvature="0" /></g><g
       id="g252"><path
         d="m 1671.35,397.272 h 384"
         style="fill:none;stroke:#bebebe;stroke-width:2;stroke-linecap:butt;stroke-linejoin:round;stroke-miterlimit:10;stroke-dasharray:none;stroke-opacity:1"
         id="path254"
         inkscape:connector-curvature="0" /></g><g
       id="g256"><path
         d="m 1703.35,557.272 c 0,17.673 -14.33,32 -32,32 -17.67,0 -32,-14.327 -32,-32 0,-17.673 14.33,-32 32,-32 17.67,0 32,14.327 32,32"
         style="fill:none;stroke:#bebebe;stroke-width:2;stroke-linecap:butt;stroke-linejoin:round;stroke-miterlimit:10;stroke-dasharray:none;stroke-opacity:1"
         id="path258"
         inkscape:connector-curvature="0" /></g><g
       id="g260"><path
         d="m 1767.35,589.272 c 0,17.673 -14.33,32 -32,32 -17.67,0 -32,-14.327 -32,-32 0,-17.673 14.33,-32 32,-32 17.67,0 32,14.327 32,32"
         style="fill:none;stroke:#bebebe;stroke-width:2;stroke-linecap:butt;stroke-linejoin:round;stroke-miterlimit:10;stroke-dasharray:none;stroke-opacity:1"
         id="path262"
         inkscape:connector-curvature="0" /></g><g
       id="g264"><path
         d="m 1831.35,557.272 c 0,17.673 -14.33,32 -32,32 -17.67,0 -32,-14.327 -32,-32 0,-17.673 14.33,-32 32,-32 17.67,0 32,14.327 32,32"
         style="fill:none;stroke:#bebebe;stroke-width:2;stroke-linecap:butt;stroke-linejoin:round;stroke-miterlimit:10;stroke-dasharray:none;stroke-opacity:1"
         id="path266"
         inkscape:connector-curvature="0" /></g><g
       id="g268"><path
         d="m 1703.35,237.272 c 0,17.673 -14.33,32 -32,32 -17.67,0 -32,-14.327 -32,-32 0,-17.673 14.33,-32 32,-32 17.67,0 32,14.327 32,32"
         style="fill:none;stroke:#bebebe;stroke-width:2;stroke-linecap:butt;stroke-linejoin:round;stroke-miterlimit:10;stroke-dasharray:none;stroke-opacity:1"
         id="path270"
         inkscape:connector-curvature="0" /></g><g
       id="g272"><path
         d="m 2087.35,397.272 c 0,17.673 -14.33,32 -32,32 -17.67,0 -32,-14.327 -32,-32 0,-17.673 14.33,-32 32,-32 17.67,0 32,14.327 32,32"
         style="fill:none;stroke:#bebebe;stroke-width:2;stroke-linecap:butt;stroke-linejoin:round;stroke-miterlimit:10;stroke-dasharray:none;stroke-opacity:1"
         id="path274"
         inkscape:connector-curvature="0" /></g><g
       id="g276"><path
         d="m 2087.35,589.272 c 0,17.673 -14.33,32 -32,32 -17.67,0 -32,-14.327 -32,-32 0,-17.673 14.33,-32 32,-32 17.67,0 32,14.327 32,32"
         style="fill:none;stroke:#bebebe;stroke-width:2;stroke-linecap:butt;stroke-linejoin:round;stroke-miterlimit:10;stroke-dasharray:none;stroke-opacity:1"
         id="path278"
         inkscape:connector-curvature="0" /></g><g
       id="g280"><path
         d="m 1671.35,557.272 h 384"
         style="fill:none;stroke:#bebebe;stroke-width:2;stroke-linecap:butt;stroke-linejoin:round;stroke-miterlimit:10;stroke-dasharray:none;stroke-opacity:1"
         id="path282"
         inkscape:connector-curvature="0" /></g><g
       id="g284"><path
         d="m 1671.35,301.272 h 384"
         style="fill:none;stroke:#bebebe;stroke-width:2;stroke-linecap:butt;stroke-linejoin:round;stroke-miterlimit:10;stroke-dasharray:none;stroke-opacity:1"
         id="path286"
         inkscape:connector-curvature="0" /></g><g
       id="g288"><path
         d="m 1671.35,253.272 h 384"
         style="fill:none;stroke:#bebebe;stroke-width:2;stroke-linecap:butt;stroke-linejoin:round;stroke-miterlimit:10;stroke-dasharray:none;stroke-opacity:1"
         id="path290"
         inkscape:connector-curvature="0" /></g><g
       id="g292"><path
         d="m 1923.32,254.343 c 24.7,0.965 43.94,21.772 42.98,46.473 -0.97,24.701 -21.78,43.943 -46.48,42.977 -24.7,-0.966 -43.94,-21.772 -42.97,-46.474 0.96,-24.701 21.77,-43.942 46.47,-42.976"
         style="fill:none;stroke:#bebebe;stroke-width:2;stroke-linecap:butt;stroke-linejoin:round;stroke-miterlimit:10;stroke-dasharray:none;stroke-opacity:1"
         id="path294"
         inkscape:connector-curvature="0" /></g><g
       id="g296"><path
         d="m 1028.44,574.774 c -0.99,-21.36 -4.15,-42.563 -9.42,-63.286 1.24,15.747 -8.82,30.176 -24.03,34.453 -28.686,7.391 -58.19,11.13 -87.813,11.13 -56.483,0 -107.425,-33.963 -129.148,-86.101 -36.183,-83.145 1.886,-179.88 85.031,-216.063 13.65,-5.94 28.045,-9.997 42.789,-12.058 19.402,-4.033 39.389,-4.382 58.919,-1.028 v 91.254 c 0,17.673 -14.327,32 -32,32 h 128.002 c -17.68,0 -32,-14.327 -32,-32 V 219.852 C 972.728,201.397 913.221,195.94 854.759,203.896 c -97.848,13.647 -166.107,104.032 -152.46,201.88 0.169,1.213 0.351,2.425 0.545,3.635 20.797,114.681 126.089,194.233 242.089,182.906 28.395,-2.769 56.397,-8.652 83.507,-17.544 z"
         style="fill:#ffff00;fill-opacity:1;fill-rule:evenodd;stroke:#000000;stroke-width:4;stroke-linecap:butt;stroke-linejoin:round;stroke-miterlimit:10;stroke-dasharray:none;stroke-opacity:1"
         id="path298"
         inkscape:connector-curvature="0" /></g><g
       id="g300"><path
         d="m 545.312,574.184 c -0.974,-21.362 -4.131,-42.567 -9.422,-63.286 1.317,16.051 -9.16,30.702 -24.775,34.645 -28.494,7.042 -57.716,10.713 -87.066,10.94 -58.276,-0.002 -110.935,-34.758 -133.846,-88.341 -33.769,-86.734 9.167,-184.422 95.902,-218.192 11.194,-4.358 22.822,-7.507 34.686,-9.393 26.774,-2.957 53.852,-1.46 80.137,4.431 25.97,7.326 43.97,30.938 44.156,57.921 1.701,-28.884 -0.688,-57.864 -7.097,-86.08 -53.819,-16.5 -110.579,-21.114 -166.356,-13.524 -98.034,13.79 -166.329,104.441 -152.54,202.475 2.235,15.89 6.594,31.408 12.959,46.138 36.979,92.505 130.602,149.477 229.755,139.81 28.395,-2.77 56.399,-8.653 83.507,-17.544 z"
         style="fill:#ffff00;fill-opacity:1;fill-rule:evenodd;stroke:#000000;stroke-width:4;stroke-linecap:butt;stroke-linejoin:round;stroke-miterlimit:10;stroke-dasharray:none;stroke-opacity:1"
         id="path302"
         inkscape:connector-curvature="0" /></g><g
       id="g304"><path
         d="m 1362.89,482.229 -39.1,-117.321 h 87.99 l -48.89,117.321 m -47.8,-277.398 -124.65,0.077 c 19.33,0.004 36.44,12.509 42.31,30.925 l 117.69,353.075 h 32 L 1530,234.807 c 7.37,-18.064 24.93,-29.879 44.44,-29.899 h -120 c 8.84,0 16,7.163 16,16 0,2.212 -0.46,4.4 -1.35,6.426 l -43.98,105.574 h -111.99 l -28.14,-84.428 c -6.39,-16.524 1.83,-35.1 18.35,-41.49 3.62,-1.399 7.45,-2.13 11.33,-2.159"
         style="fill:#ffff00;fill-opacity:1;fill-rule:evenodd;stroke:#000000;stroke-width:4;stroke-linecap:butt;stroke-linejoin:round;stroke-miterlimit:10;stroke-dasharray:none;stroke-opacity:1"
         id="path306"
         inkscape:connector-curvature="0" /></g><g
       id="g308"><path
         d="m 1641.01,513.326 c 117.12,51.526 253.83,-1.641 305.35,-118.755 29.25,-66.464 25.64,-142.794 -9.75,-206.201"
         style="fill:none;stroke:#bebebe;stroke-width:1.79999995;stroke-linecap:butt;stroke-linejoin:round;stroke-miterlimit:10;stroke-dasharray:none;stroke-opacity:1"
         id="path310"
         inkscape:connector-curvature="0" /></g><g
       id="g312"><path
         d="m 1965.98,300.865 c -0.06,-32.984 -7.16,-65.576 -20.82,-95.595 l -273.81,0.002 c 17.67,0 32,14.327 32,32 v 320 c 0,17.673 -14.33,32 -32,32 v 0 h 128 c -17.67,0 -32,-14.327 -32,-32 v -304 h 150.63 c 26.35,0 47.78,21.243 48,47.593 z"
         style="fill:#ffff00;fill-opacity:1;fill-rule:evenodd;stroke:#000000;stroke-width:4;stroke-linecap:butt;stroke-linejoin:round;stroke-miterlimit:10;stroke-dasharray:none;stroke-opacity:1"
         id="path314"
         inkscape:connector-curvature="0" /></g><g
       id="g316"><path
         d="M 83.2329,632.158 V 123.345 H 2100.37 v 508.813 z"
         style="fill:none;stroke:#ffffff;stroke-width:0.40000001;stroke-linecap:butt;stroke-linejoin:round;stroke-miterlimit:10;stroke-dasharray:none;stroke-opacity:1"
         id="path318"
         inkscape:connector-curvature="0" /></g></g></svg>