<?xml version="1.0" encoding="UTF-8" standalone="no"?>
<!-- Created with Inkscape (http://www.inkscape.org/) -->

<svg
   xmlns:dc="http://purl.org/dc/elements/1.1/"
   xmlns:cc="http://creativecommons.org/ns#"
   xmlns:rdf="http://www.w3.org/1999/02/22-rdf-syntax-ns#"
   xmlns:svg="http://www.w3.org/2000/svg"
   xmlns="http://www.w3.org/2000/svg"
   xmlns:sodipodi="http://sodipodi.sourceforge.net/DTD/sodipodi-0.dtd"
   xmlns:inkscape="http://www.inkscape.org/namespaces/inkscape"
   version="1.1"
   id="svg316"
   xml:space="preserve"
   width="871.59186"
   height="871.59186"
   viewBox="0 0 871.59186 871.59186"
   sodipodi:docname="cgal_2013_grey_square.svg"
   inkscape:version="0.92.3 (2405546, 2018-03-11)"
   inkscape:export-filename="/home/lrineau/Git/cgal-web/web_old/logo/cgal-196x196.png"
   inkscape:export-xdpi="21.59"
   inkscape:export-ydpi="21.59"><metadata
     id="metadata322"><rdf:RDF><cc:Work
         rdf:about=""><dc:format>image/svg+xml</dc:format><dc:type
           rdf:resource="http://purl.org/dc/dcmitype/StillImage" /><dc:title></dc:title></cc:Work></rdf:RDF></metadata><defs
     id="defs320" /><sodipodi:namedview
     pagecolor="#ffffff"
     bordercolor="#666666"
     borderopacity="1"
     objecttolerance="10"
     gridtolerance="10"
     guidetolerance="10"
     inkscape:pageopacity="0"
     inkscape:pageshadow="2"
     inkscape:window-width="3200"
     inkscape:window-height="1739"
     id="namedview318"
     showgrid="false"
     fit-margin-top="0"
     fit-margin-left="0"
     fit-margin-right="0"
     fit-margin-bottom="0"
     inkscape:zoom="0.5633482"
     inkscape:cx="-103.05602"
     inkscape:cy="330.34167"
     inkscape:window-x="0"
     inkscape:window-y="0"
     inkscape:window-maximized="1"
     inkscape:current-layer="g324" /><g
     id="g324"
     inkscape:groupmode="layer"
     inkscape:label="cgal_2013_grey_square"
     transform="matrix(1.3333333,0,0,-1.3333333,-253.59466,964.12415)"><g
       id="g454"><path
         d="m 498.784,541.478 c 0,84.003 -68.098,152.101 -152.101,152.101 -84.003,0 -152.101,-68.098 -152.101,-152.101 0,-84.003 68.098,-152.1 152.101,-152.1 84.003,0 152.101,68.097 152.101,152.1"
         style="fill:none;stroke:#bebebe;stroke-width:2;stroke-linecap:butt;stroke-linejoin:round;stroke-miterlimit:10;stroke-dasharray:none;stroke-opacity:1"
         id="path456"
         inkscape:connector-curvature="0" /></g><g
       id="g678"
       transform="translate(15.97591)"><g
         id="g326"><path
           inkscape:connector-curvature="0"
           id="path328"
           style="fill:none;stroke:#bebebe;stroke-width:2;stroke-linecap:butt;stroke-linejoin:round;stroke-miterlimit:10;stroke-dasharray:none;stroke-opacity:1"
           d="M 533.269,430.665 V 691.384 H 793.988 V 430.665 Z" /></g><g
         id="g330"><path
           inkscape:connector-curvature="0"
           id="path332"
           style="fill:none;stroke:#bebebe;stroke-width:2;stroke-linecap:butt;stroke-linejoin:round;stroke-miterlimit:10;stroke-dasharray:none;stroke-opacity:1"
           d="M 663.938,691.384 V 430.665" /></g><g
         id="g334"><path
           inkscape:connector-curvature="0"
           id="path336"
           style="fill:none;stroke:#bebebe;stroke-width:2;stroke-linecap:butt;stroke-linejoin:round;stroke-miterlimit:10;stroke-dasharray:none;stroke-opacity:1"
           d="M 533.578,561.024 H 794.297" /></g><g
         id="g338"><path
           inkscape:connector-curvature="0"
           id="path340"
           style="fill:none;stroke:#bebebe;stroke-width:2;stroke-linecap:butt;stroke-linejoin:round;stroke-miterlimit:10;stroke-dasharray:none;stroke-opacity:1"
           d="m 685.664,561.024 c 0,11.999 -9.727,21.727 -21.726,21.727 -11.999,0 -21.727,-9.728 -21.727,-21.727 0,-11.999 9.728,-21.726 21.727,-21.726 11.999,0 21.726,9.727 21.726,21.726" /></g><g
         id="g342"><path
           inkscape:connector-curvature="0"
           id="path344"
           style="fill:none;stroke:#bebebe;stroke-width:2;stroke-linecap:butt;stroke-linejoin:round;stroke-miterlimit:10;stroke-dasharray:none;stroke-opacity:1"
           d="M 739.255,430.665 588.621,691.384" /></g><g
         id="g346"><path
           inkscape:connector-curvature="0"
           id="path348"
           style="fill:none;stroke:#bebebe;stroke-width:2;stroke-linecap:butt;stroke-linejoin:round;stroke-miterlimit:10;stroke-dasharray:none;stroke-opacity:1"
           d="M 533.578,485.707 794.297,636.341" /></g><g
         id="g350"><path
           inkscape:connector-curvature="0"
           id="path352"
           style="fill:none;stroke:#bebebe;stroke-width:2;stroke-linecap:butt;stroke-linejoin:round;stroke-miterlimit:10;stroke-dasharray:none;stroke-opacity:1"
           d="m 582.431,664.492 32.584,18.819" /></g><g
         id="g354"><path
           inkscape:connector-curvature="0"
           id="path356"
           style="fill:none;stroke:#bebebe;stroke-width:2;stroke-linecap:butt;stroke-linejoin:round;stroke-miterlimit:10;stroke-dasharray:none;stroke-opacity:1"
           d="m 593.301,645.673 32.583,18.819" /></g><g
         id="g358"><path
           inkscape:connector-curvature="0"
           id="path360"
           style="fill:none;stroke:#bebebe;stroke-width:2;stroke-linecap:butt;stroke-linejoin:round;stroke-miterlimit:10;stroke-dasharray:none;stroke-opacity:1"
           d="m 766.58,550.155 c 0,67.077 -54.377,121.455 -121.455,121.455 -67.077,0 -121.455,-54.378 -121.455,-121.455 0,-67.078 54.378,-121.455 121.455,-121.455 67.078,0 121.455,54.377 121.455,121.455" /></g><g
         id="g362"><path
           inkscape:connector-curvature="0"
           id="path364"
           style="fill:none;stroke:#bebebe;stroke-width:2;stroke-linecap:butt;stroke-linejoin:round;stroke-miterlimit:10;stroke-dasharray:none;stroke-opacity:1"
           d="m 826.914,542.201 c 0,84.004 -68.098,152.101 -152.101,152.101 -84.003,0 -152.101,-68.097 -152.101,-152.101 0,-84.003 68.098,-152.1 152.101,-152.1 84.003,0 152.101,68.097 152.101,152.1" /></g><g
         id="g366"><path
           inkscape:connector-curvature="0"
           id="path368"
           style="fill:none;stroke:#bebebe;stroke-width:2;stroke-linecap:butt;stroke-linejoin:round;stroke-miterlimit:10;stroke-dasharray:none;stroke-opacity:1"
           d="m 689.573,693.585 c 44.678,-4.357 87.51,-20.027 124.451,-45.531" /></g><g
         id="g370"><path
           inkscape:connector-curvature="0"
           id="path372"
           style="fill:none;stroke:#bebebe;stroke-width:2;stroke-linecap:butt;stroke-linejoin:round;stroke-miterlimit:10;stroke-dasharray:none;stroke-opacity:1"
           d="m 663.938,669.654 c 55.335,0 108.956,-19.202 151.712,-54.329" /></g><g
         id="g374"><path
           inkscape:connector-curvature="0"
           id="path376"
           style="fill:none;stroke:#bebebe;stroke-width:2;stroke-linecap:butt;stroke-linejoin:round;stroke-miterlimit:10;stroke-dasharray:none;stroke-opacity:1"
           d="m 663.938,452.394 c 52.605,0 103.741,17.357 145.478,49.379" /></g><g
         id="g378"><path
           inkscape:connector-curvature="0"
           id="path380"
           style="fill:none;stroke:#bebebe;stroke-width:2;stroke-linecap:butt;stroke-linejoin:round;stroke-miterlimit:10;stroke-dasharray:none;stroke-opacity:1"
           d="m 628.348,429.864 c 62.345,-8.484 125.67,5.584 178.559,39.667" /></g><g
         id="g382"><path
           inkscape:connector-curvature="0"
           id="path384"
           style="fill:none;stroke:#bebebe;stroke-width:2;stroke-linecap:butt;stroke-linejoin:round;stroke-miterlimit:10;stroke-dasharray:none;stroke-opacity:1"
           d="m 739.255,430.665 c 8.159,30.478 9.44,62.389 3.754,93.423" /></g><g
         id="g386"><path
           inkscape:connector-curvature="0"
           id="path388"
           style="fill:none;stroke:#bebebe;stroke-width:2;stroke-linecap:butt;stroke-linejoin:round;stroke-miterlimit:10;stroke-dasharray:none;stroke-opacity:1"
           d="m 746.493,691.384 c 0,-26.302 -4.874,-52.377 -14.374,-76.903" /></g><g
         id="g390"><path
           inkscape:connector-curvature="0"
           id="path392"
           style="fill:none;stroke:#bebebe;stroke-width:2;stroke-linecap:butt;stroke-linejoin:round;stroke-miterlimit:10;stroke-dasharray:none;stroke-opacity:1"
           d="m 739.696,641.108 c 0,12 -9.727,21.727 -21.726,21.727 -11.999,0 -21.727,-9.727 -21.727,-21.727 0,-11.999 9.728,-21.726 21.727,-21.726 11.999,0 21.726,9.727 21.726,21.726" /></g><g
         id="g394"><path
           inkscape:connector-curvature="0"
           id="path396"
           style="fill:none;stroke:#bebebe;stroke-width:2;stroke-linecap:butt;stroke-linejoin:round;stroke-miterlimit:10;stroke-dasharray:none;stroke-opacity:1"
           d="M 746.493,691.384 V 430.665" /></g><g
         id="g398"><path
           inkscape:connector-curvature="0"
           id="path400"
           style="fill:none;stroke:#bebebe;stroke-width:2;stroke-linecap:butt;stroke-linejoin:round;stroke-miterlimit:10;stroke-dasharray:none;stroke-opacity:1"
           d="M 663.938,539.298 H 794.297" /></g><g
         id="g402"><path
           inkscape:connector-curvature="0"
           id="path404"
           style="fill:none;stroke:#bebebe;stroke-width:2;stroke-linecap:butt;stroke-linejoin:round;stroke-miterlimit:10;stroke-dasharray:none;stroke-opacity:1"
           d="m 746.493,539.298 c 0,11.999 -9.728,21.726 -21.727,21.726 -11.999,0 -21.726,-9.727 -21.726,-21.726 0,-12 9.727,-21.727 21.726,-21.727 11.999,0 21.727,9.727 21.727,21.727" /></g><g
         id="g406"><path
           inkscape:connector-curvature="0"
           id="path408"
           style="fill:none;stroke:#bebebe;stroke-width:2;stroke-linecap:butt;stroke-linejoin:round;stroke-miterlimit:10;stroke-dasharray:none;stroke-opacity:1"
           d="m 789.946,517.571 c 0,11.999 -9.727,21.727 -21.727,21.727 -11.999,0 -21.726,-9.728 -21.726,-21.727 0,-11.999 9.727,-21.727 21.726,-21.727 12,0 21.727,9.728 21.727,21.727" /></g><g
         id="g410"><path
           inkscape:connector-curvature="0"
           id="path412"
           style="fill:none;stroke:#bebebe;stroke-width:2;stroke-linecap:butt;stroke-linejoin:round;stroke-miterlimit:10;stroke-dasharray:none;stroke-opacity:1"
           d="M 703.04,430.665 V 539.298" /></g><g
         id="g414"><path
           inkscape:connector-curvature="0"
           id="path416"
           style="fill:none;stroke:#bebebe;stroke-width:2;stroke-linecap:butt;stroke-linejoin:round;stroke-miterlimit:10;stroke-dasharray:none;stroke-opacity:1"
           d="m 703.04,517.571 c 0,11.999 -9.728,21.727 -21.727,21.727 -11.999,0 -21.727,-9.728 -21.727,-21.727 0,-11.999 9.728,-21.727 21.727,-21.727 11.999,0 21.727,9.728 21.727,21.727" /></g><g
         id="g490"><path
           inkscape:connector-curvature="0"
           id="path492"
           style="fill:#ffff00;fill-opacity:1;fill-rule:evenodd;stroke:#000000;stroke-width:4;stroke-linecap:butt;stroke-linejoin:round;stroke-miterlimit:10;stroke-dasharray:none;stroke-opacity:1"
           d="m 746.279,682.146 c -0.675,-14.502 -2.818,-28.898 -6.397,-42.968 0.842,10.692 -5.99,20.488 -16.314,23.392 -19.477,5.018 -39.509,7.557 -59.621,7.557 -38.349,0 -72.937,-23.059 -87.686,-58.459 -24.567,-56.451 1.281,-122.13 57.732,-146.697 9.268,-4.033 19.042,-6.787 29.052,-8.186 13.173,-2.739 26.743,-2.976 40.004,-0.699 l -10e-4,61.958 c 0,11.999 -9.727,21.726 -21.726,21.726 h 86.906 c -11.999,0 -21.726,-9.727 -21.726,-21.726 V 441.17 c -38.049,-12.53 -78.451,-16.235 -118.145,-10.833 -66.434,9.265 -112.779,70.633 -103.513,137.067 0.115,0.824 0.238,1.647 0.37,2.468 14.12,77.864 85.608,131.876 164.367,124.185 19.279,-1.88 38.292,-5.874 56.698,-11.911 z" /></g></g><g
       id="g716"
       transform="translate(19.304225)"><g
         id="g418"><path
           inkscape:connector-curvature="0"
           id="path420"
           style="fill:none;stroke:#bebebe;stroke-width:2;stroke-linecap:butt;stroke-linejoin:round;stroke-miterlimit:10;stroke-dasharray:none;stroke-opacity:1"
           d="M 205.449,429.942 V 690.661 H 466.168 V 429.942 Z" /></g><g
         id="g422"><path
           inkscape:connector-curvature="0"
           id="path424"
           style="fill:none;stroke:#bebebe;stroke-width:2;stroke-linecap:butt;stroke-linejoin:round;stroke-miterlimit:10;stroke-dasharray:none;stroke-opacity:1"
           d="M 335.808,690.661 V 429.942" /></g><g
         id="g426"><path
           inkscape:connector-curvature="0"
           id="path428"
           style="fill:none;stroke:#bebebe;stroke-width:2;stroke-linecap:butt;stroke-linejoin:round;stroke-miterlimit:10;stroke-dasharray:none;stroke-opacity:1"
           d="M 205.449,560.301 H 466.168" /></g><g
         id="g430"><path
           inkscape:connector-curvature="0"
           id="path432"
           style="fill:none;stroke:#bebebe;stroke-width:2;stroke-linecap:butt;stroke-linejoin:round;stroke-miterlimit:10;stroke-dasharray:none;stroke-opacity:1"
           d="m 357.535,560.301 c 0,11.999 -9.727,21.727 -21.727,21.727 -11.999,0 -21.726,-9.728 -21.726,-21.727 0,-11.999 9.727,-21.726 21.726,-21.726 12,0 21.727,9.727 21.727,21.726" /></g><g
         id="g434"><path
           inkscape:connector-curvature="0"
           id="path436"
           style="fill:none;stroke:#bebebe;stroke-width:2;stroke-linecap:butt;stroke-linejoin:round;stroke-miterlimit:10;stroke-dasharray:none;stroke-opacity:1"
           d="M 411.126,429.942 260.491,690.661" /></g><g
         id="g438"><path
           inkscape:connector-curvature="0"
           id="path440"
           style="fill:none;stroke:#bebebe;stroke-width:2;stroke-linecap:butt;stroke-linejoin:round;stroke-miterlimit:10;stroke-dasharray:none;stroke-opacity:1"
           d="M 205.449,484.984 466.168,635.618" /></g><g
         id="g442"><path
           inkscape:connector-curvature="0"
           id="path444"
           style="fill:none;stroke:#bebebe;stroke-width:2;stroke-linecap:butt;stroke-linejoin:round;stroke-miterlimit:10;stroke-dasharray:none;stroke-opacity:1"
           d="m 254.302,663.769 32.584,18.819" /></g><g
         id="g446"><path
           inkscape:connector-curvature="0"
           id="path448"
           style="fill:none;stroke:#bebebe;stroke-width:2;stroke-linecap:butt;stroke-linejoin:round;stroke-miterlimit:10;stroke-dasharray:none;stroke-opacity:1"
           d="m 265.171,644.95 32.584,18.819" /></g><g
         id="g450"><path
           inkscape:connector-curvature="0"
           id="path452"
           style="fill:none;stroke:#bebebe;stroke-width:2;stroke-linecap:butt;stroke-linejoin:round;stroke-miterlimit:10;stroke-dasharray:none;stroke-opacity:1"
           d="m 438.451,549.432 c 0,67.077 -54.377,121.455 -121.455,121.455 -67.078,0 -121.455,-54.378 -121.455,-121.455 0,-67.078 54.377,-121.455 121.455,-121.455 67.078,0 121.455,54.377 121.455,121.455" /></g><g
         id="g458"><path
           inkscape:connector-curvature="0"
           id="path460"
           style="fill:none;stroke:#bebebe;stroke-width:2;stroke-linecap:butt;stroke-linejoin:round;stroke-miterlimit:10;stroke-dasharray:none;stroke-opacity:1"
           d="m 361.583,692.862 c 44.679,-4.357 87.511,-20.027 124.452,-45.531" /></g><g
         id="g462"><path
           inkscape:connector-curvature="0"
           id="path464"
           style="fill:none;stroke:#bebebe;stroke-width:2;stroke-linecap:butt;stroke-linejoin:round;stroke-miterlimit:10;stroke-dasharray:none;stroke-opacity:1"
           d="m 335.808,668.931 c 55.336,0 108.956,-19.202 151.712,-54.329" /></g><g
         id="g466"><path
           inkscape:connector-curvature="0"
           id="path468"
           style="fill:none;stroke:#bebebe;stroke-width:2;stroke-linecap:butt;stroke-linejoin:round;stroke-miterlimit:10;stroke-dasharray:none;stroke-opacity:1"
           d="m 335.808,451.671 c 52.606,0 103.742,17.357 145.478,49.379" /></g><g
         id="g470"><path
           inkscape:connector-curvature="0"
           id="path472"
           style="fill:none;stroke:#bebebe;stroke-width:2;stroke-linecap:butt;stroke-linejoin:round;stroke-miterlimit:10;stroke-dasharray:none;stroke-opacity:1"
           d="m 300.219,429.141 c 62.345,-8.484 125.67,5.584 178.558,39.667" /></g><g
         id="g474"><path
           inkscape:connector-curvature="0"
           id="path476"
           style="fill:none;stroke:#bebebe;stroke-width:2;stroke-linecap:butt;stroke-linejoin:round;stroke-miterlimit:10;stroke-dasharray:none;stroke-opacity:1"
           d="m 411.126,429.942 c 8.158,30.478 9.44,62.389 3.753,93.423" /></g><g
         id="g478"><path
           inkscape:connector-curvature="0"
           id="path480"
           style="fill:none;stroke:#bebebe;stroke-width:2;stroke-linecap:butt;stroke-linejoin:round;stroke-miterlimit:10;stroke-dasharray:none;stroke-opacity:1"
           d="m 418.363,690.661 c 0,-26.302 -4.873,-52.377 -14.373,-76.903" /></g><g
         id="g482"><path
           inkscape:connector-curvature="0"
           id="path484"
           style="fill:none;stroke:#bebebe;stroke-width:2;stroke-linecap:butt;stroke-linejoin:round;stroke-miterlimit:10;stroke-dasharray:none;stroke-opacity:1"
           d="m 411.567,640.385 c 0,12 -9.727,21.727 -21.727,21.727 -11.999,0 -21.726,-9.727 -21.726,-21.727 0,-11.999 9.727,-21.726 21.726,-21.726 12,0 21.727,9.727 21.727,21.726" /></g><g
         id="g486"><path
           inkscape:connector-curvature="0"
           id="path488"
           style="fill:none;stroke:#bebebe;stroke-width:2;stroke-linecap:butt;stroke-linejoin:round;stroke-miterlimit:10;stroke-dasharray:none;stroke-opacity:1"
           d="m 417.897,496.977 c -0.168,22.745 -18.742,41.048 -41.486,40.88 -22.745,-0.167 -41.048,-18.741 -40.881,-41.486 0.167,-22.744 18.741,-41.047 41.486,-40.88 22.745,0.167 41.048,18.741 40.881,41.486" /></g><g
         id="g494"><path
           inkscape:connector-curvature="0"
           id="path496"
           style="fill:#ffff00;fill-opacity:1;fill-rule:evenodd;stroke:#000000;stroke-width:4;stroke-linecap:butt;stroke-linejoin:round;stroke-miterlimit:10;stroke-dasharray:none;stroke-opacity:1"
           d="m 418.257,681.746 c -0.662,-14.504 -2.805,-28.901 -6.398,-42.969 0.895,10.898 -6.219,20.846 -16.821,23.523 -19.346,4.781 -39.186,7.273 -59.114,7.427 -39.566,-10e-4 -75.319,-23.598 -90.875,-59.979 -22.928,-58.889 6.224,-125.214 65.113,-148.142 7.6,-2.959 15.495,-5.098 23.55,-6.378 18.179,-2.007 36.564,-0.991 54.41,3.008 17.632,4.974 29.854,21.006 29.98,39.326 1.155,-19.611 -0.467,-39.287 -4.819,-58.444 -36.54,-11.203 -75.078,-14.336 -112.948,-9.182 -66.561,9.362 -112.93,70.91 -103.568,137.471 1.518,10.789 4.477,21.325 8.799,31.326 25.107,62.807 88.673,101.488 155.993,94.924 19.279,-1.88 38.292,-5.874 56.698,-11.911 z" /></g></g><g
       id="g498"><path
         d="M 808.967,267.992 547.855,115.91"
         style="fill:none;stroke:#bebebe;stroke-width:2;stroke-linecap:butt;stroke-linejoin:round;stroke-miterlimit:10;stroke-dasharray:none;stroke-opacity:1"
         id="path500"
         inkscape:connector-curvature="0" /></g><g
       id="g502"><path
         d="M 221.344,115.662 V 376.381 H 482.063 V 115.662 Z"
         style="fill:none;stroke:#bebebe;stroke-width:2;stroke-linecap:butt;stroke-linejoin:round;stroke-miterlimit:10;stroke-dasharray:none;stroke-opacity:1"
         id="path504"
         inkscape:connector-curvature="0" /></g><g
       id="g506"><path
         d="M 351.704,376.381 V 115.662"
         style="fill:none;stroke:#bebebe;stroke-width:2;stroke-linecap:butt;stroke-linejoin:round;stroke-miterlimit:10;stroke-dasharray:none;stroke-opacity:1"
         id="path508"
         inkscape:connector-curvature="0" /></g><g
       id="g510"><path
         d="M 221.344,246.022 H 482.063"
         style="fill:none;stroke:#bebebe;stroke-width:2;stroke-linecap:butt;stroke-linejoin:round;stroke-miterlimit:10;stroke-dasharray:none;stroke-opacity:1"
         id="path512"
         inkscape:connector-curvature="0" /></g><g
       id="g514"><path
         d="m 460.337,115.662 c 0,12 -9.728,21.727 -21.727,21.727 -11.999,0 -21.726,-9.727 -21.726,-21.727 0,-11.999 9.727,-21.7261 21.726,-21.7261 11.999,0 21.727,9.7271 21.727,21.7261"
         style="fill:none;stroke:#bebebe;stroke-width:2;stroke-linecap:butt;stroke-linejoin:round;stroke-miterlimit:10;stroke-dasharray:none;stroke-opacity:1"
         id="path516"
         inkscape:connector-curvature="0" /></g><g
       id="g518"><path
         d="m 504.695,223.39 c 0,84.495 -68.497,152.991 -152.991,152.991 -84.495,0 -152.991,-68.496 -152.991,-152.991 0,-84.494 68.496,-152.9908 152.991,-152.9908 84.494,0 152.991,68.4968 152.991,152.9908"
         style="fill:none;stroke:#bebebe;stroke-width:2;stroke-linecap:butt;stroke-linejoin:round;stroke-miterlimit:10;stroke-dasharray:none;stroke-opacity:1"
         id="path520"
         inkscape:connector-curvature="0" /></g><g
       id="g522"><path
         d="m 308.251,115.662 c 0,12 -9.728,21.727 -21.727,21.727 -11.999,0 -21.726,-9.727 -21.726,-21.727 0,-11.999 9.727,-21.7261 21.726,-21.7261 11.999,0 21.727,9.7271 21.727,21.7261"
         style="fill:none;stroke:#bebebe;stroke-width:2;stroke-linecap:butt;stroke-linejoin:round;stroke-miterlimit:10;stroke-dasharray:none;stroke-opacity:1"
         id="path524"
         inkscape:connector-curvature="0" /></g><g
       id="g526"><path
         d="m 275.667,115.662 86.906,260.719"
         style="fill:none;stroke:#bebebe;stroke-width:2;stroke-linecap:butt;stroke-linejoin:round;stroke-miterlimit:10;stroke-dasharray:none;stroke-opacity:1"
         id="path528"
         inkscape:connector-curvature="0" /></g><g
       id="g530"><path
         d="M 416.884,115.662 308.251,376.381"
         style="fill:none;stroke:#bebebe;stroke-width:2;stroke-linecap:butt;stroke-linejoin:round;stroke-miterlimit:10;stroke-dasharray:none;stroke-opacity:1"
         id="path532"
         inkscape:connector-curvature="0" /></g><g
       id="g534"><path
         d="m 514.637,148.236 c 0,17.99 -14.584,32.573 -32.574,32.573 -17.989,0 -32.573,-14.583 -32.573,-32.573 0,-17.99 14.584,-32.573 32.573,-32.573 17.99,0 32.574,14.583 32.574,32.573"
         style="fill:none;stroke:#bebebe;stroke-width:2;stroke-linecap:butt;stroke-linejoin:round;stroke-miterlimit:10;stroke-dasharray:none;stroke-opacity:1"
         id="path536"
         inkscape:connector-curvature="0" /></g><g
       id="g538"><path
         d="m 251.493,145.811 c 0,16.65 -13.498,30.148 -30.149,30.148 -16.65,0 -30.148,-13.498 -30.148,-30.148 0,-16.651 13.498,-30.148 30.148,-30.148 16.651,0 30.149,13.497 30.149,30.148"
         style="fill:none;stroke:#bebebe;stroke-width:2;stroke-linecap:butt;stroke-linejoin:round;stroke-miterlimit:10;stroke-dasharray:none;stroke-opacity:1"
         id="path540"
         inkscape:connector-curvature="0" /></g><g
       id="g542"><path
         d="m 327.621,137.389 c 0,12.028 -9.751,21.78 -21.78,21.78 -12.028,0 -21.779,-9.752 -21.779,-21.78 0,-12.029 9.751,-21.78 21.779,-21.78 12.029,0 21.78,9.751 21.78,21.78"
         style="fill:none;stroke:#bebebe;stroke-width:2;stroke-linecap:butt;stroke-linejoin:round;stroke-miterlimit:10;stroke-dasharray:none;stroke-opacity:1"
         id="path544"
         inkscape:connector-curvature="0" /></g><g
       id="g546"><path
         d="m 411.451,126.526 c 0,5.999 -4.863,10.863 -10.863,10.863 -6,0 -10.863,-4.864 -10.863,-10.863 0,-6 4.863,-10.864 10.863,-10.864 6,0 10.863,4.864 10.863,10.864"
         style="fill:none;stroke:#bebebe;stroke-width:2;stroke-linecap:butt;stroke-linejoin:round;stroke-miterlimit:10;stroke-dasharray:none;stroke-opacity:1"
         id="path548"
         inkscape:connector-curvature="0" /></g><g
       id="g550"><path
         d="m 243.071,246.022 c 0,11.999 -9.727,21.726 -21.727,21.726 -11.999,0 -21.726,-9.727 -21.726,-21.726 0,-11.999 9.727,-21.727 21.726,-21.727 12,0 21.727,9.728 21.727,21.727"
         style="fill:none;stroke:#bebebe;stroke-width:2;stroke-linecap:butt;stroke-linejoin:round;stroke-miterlimit:10;stroke-dasharray:none;stroke-opacity:1"
         id="path552"
         inkscape:connector-curvature="0" /></g><g
       id="g554"><path
         d="m 503.79,247.169 c 0,12 -9.727,21.727 -21.727,21.727 -11.999,0 -21.726,-9.727 -21.726,-21.727 0,-11.999 9.727,-21.726 21.726,-21.726 12,0 21.727,9.727 21.727,21.726"
         style="fill:none;stroke:#bebebe;stroke-width:2;stroke-linecap:butt;stroke-linejoin:round;stroke-miterlimit:10;stroke-dasharray:none;stroke-opacity:1"
         id="path556"
         inkscape:connector-curvature="0" /></g><g
       id="g558"><path
         d="M 221.344,224.295 H 482.063"
         style="fill:none;stroke:#bebebe;stroke-width:2;stroke-linecap:butt;stroke-linejoin:round;stroke-miterlimit:10;stroke-dasharray:none;stroke-opacity:1"
         id="path560"
         inkscape:connector-curvature="0" /></g><g
       id="g562"><path
         d="M 221.344,202.569 H 482.063"
         style="fill:none;stroke:#bebebe;stroke-width:2;stroke-linecap:butt;stroke-linejoin:round;stroke-miterlimit:10;stroke-dasharray:none;stroke-opacity:1"
         id="path564"
         inkscape:connector-curvature="0" /></g><g
       id="g566"><path
         d="M 548.248,115.91 V 376.629 H 808.967 V 115.91 Z"
         style="fill:none;stroke:#bebebe;stroke-width:2;stroke-linecap:butt;stroke-linejoin:round;stroke-miterlimit:10;stroke-dasharray:none;stroke-opacity:1"
         id="path568"
         inkscape:connector-curvature="0" /></g><g
       id="g570"><path
         d="M 678.213,376.629 V 115.91"
         style="fill:none;stroke:#bebebe;stroke-width:2;stroke-linecap:butt;stroke-linejoin:round;stroke-miterlimit:10;stroke-dasharray:none;stroke-opacity:1"
         id="path572"
         inkscape:connector-curvature="0" /></g><g
       id="g574"
       transform="translate(9.4138954,1.8827791)"><path
         d="M 547.854,246.269 H 808.573"
         style="fill:none;stroke:#bebebe;stroke-width:2;stroke-linecap:butt;stroke-linejoin:round;stroke-miterlimit:10;stroke-dasharray:none;stroke-opacity:1"
         id="path576"
         inkscape:connector-curvature="0" /></g><g
       id="g578"><path
         d="m 569.581,354.902 c 0,12 -9.728,21.727 -21.727,21.727 -11.999,0 -21.727,-9.727 -21.727,-21.727 0,-11.999 9.728,-21.726 21.727,-21.726 11.999,0 21.727,9.727 21.727,21.726"
         style="fill:none;stroke:#bebebe;stroke-width:2;stroke-linecap:butt;stroke-linejoin:round;stroke-miterlimit:10;stroke-dasharray:none;stroke-opacity:1"
         id="path580"
         inkscape:connector-curvature="0" /></g><g
       id="g582"><path
         d="m 613.034,376.629 c 0,11.999 -9.728,21.726 -21.727,21.726 -11.999,0 -21.726,-9.727 -21.726,-21.726 0,-11.999 9.727,-21.727 21.726,-21.727 11.999,0 21.727,9.728 21.727,21.727"
         style="fill:none;stroke:#bebebe;stroke-width:2;stroke-linecap:butt;stroke-linejoin:round;stroke-miterlimit:10;stroke-dasharray:none;stroke-opacity:1"
         id="path584"
         inkscape:connector-curvature="0" /></g><g
       id="g586"><path
         d="m 656.487,354.902 c 0,12 -9.727,21.727 -21.727,21.727 -11.999,0 -21.726,-9.727 -21.726,-21.727 0,-11.999 9.727,-21.726 21.726,-21.726 12,0 21.727,9.727 21.727,21.726"
         style="fill:none;stroke:#bebebe;stroke-width:2;stroke-linecap:butt;stroke-linejoin:round;stroke-miterlimit:10;stroke-dasharray:none;stroke-opacity:1"
         id="path588"
         inkscape:connector-curvature="0" /></g><g
       id="g590"><path
         d="m 569.581,137.637 c 0,11.999 -9.728,21.726 -21.727,21.726 -11.999,0 -21.727,-9.727 -21.727,-21.726 0,-12 9.728,-21.727 21.727,-21.727 11.999,0 21.727,9.727 21.727,21.727"
         style="fill:none;stroke:#bebebe;stroke-width:2;stroke-linecap:butt;stroke-linejoin:round;stroke-miterlimit:10;stroke-dasharray:none;stroke-opacity:1"
         id="path592"
         inkscape:connector-curvature="0" /></g><g
       id="g594"><path
         d="m 830.299,246.269 c 0,12 -9.727,21.727 -21.726,21.727 -11.999,0 -21.727,-9.727 -21.727,-21.727 0,-11.999 9.728,-21.726 21.727,-21.726 11.999,0 21.726,9.727 21.726,21.726"
         style="fill:none;stroke:#bebebe;stroke-width:2;stroke-linecap:butt;stroke-linejoin:round;stroke-miterlimit:10;stroke-dasharray:none;stroke-opacity:1"
         id="path596"
         inkscape:connector-curvature="0" /></g><g
       id="g598"><path
         d="m 830.299,376.629 c 0,11.999 -9.727,21.726 -21.726,21.726 -11.999,0 -21.727,-9.727 -21.727,-21.726 0,-11.999 9.728,-21.727 21.727,-21.727 11.999,0 21.726,9.728 21.726,21.727"
         style="fill:none;stroke:#bebebe;stroke-width:2;stroke-linecap:butt;stroke-linejoin:round;stroke-miterlimit:10;stroke-dasharray:none;stroke-opacity:1"
         id="path600"
         inkscape:connector-curvature="0" /></g><g
       id="g602"><path
         d="M 547.854,354.902 H 808.573"
         style="fill:none;stroke:#bebebe;stroke-width:2;stroke-linecap:butt;stroke-linejoin:round;stroke-miterlimit:10;stroke-dasharray:none;stroke-opacity:1"
         id="path604"
         inkscape:connector-curvature="0" /></g><g
       id="g606"><path
         d="M 547.854,181.09 H 808.573"
         style="fill:none;stroke:#bebebe;stroke-width:2;stroke-linecap:butt;stroke-linejoin:round;stroke-miterlimit:10;stroke-dasharray:none;stroke-opacity:1"
         id="path608"
         inkscape:connector-curvature="0" /></g><g
       id="g610"><path
         d="M 547.854,148.5 H 808.573"
         style="fill:none;stroke:#bebebe;stroke-width:2;stroke-linecap:butt;stroke-linejoin:round;stroke-miterlimit:10;stroke-dasharray:none;stroke-opacity:1"
         id="path612"
         inkscape:connector-curvature="0" /></g><g
       id="g614"><path
         d="m 718.93,149.227 c 16.771,0.655 29.835,14.782 29.179,31.553 -0.655,16.771 -14.782,29.835 -31.553,29.18 -16.771,-0.656 -29.835,-14.783 -29.179,-31.554 0.655,-16.771 14.782,-29.835 31.553,-29.179"
         style="fill:none;stroke:#bebebe;stroke-width:2;stroke-linecap:butt;stroke-linejoin:round;stroke-miterlimit:10;stroke-dasharray:none;stroke-opacity:1"
         id="path616"
         inkscape:connector-curvature="0" /></g><g
       id="g618"><path
         d="m 338.424,303.951 -26.547,-79.655 h 59.741 l -33.194,79.655 M 305.97,115.61 l -84.632,0.053 c 13.125,0.003 24.741,8.493 28.728,20.997 l 79.905,239.722 h 21.727 L 451.884,135.963 c 5.004,-12.265 16.927,-20.286 30.173,-20.3 h -81.474 c 5.999,0 10.863,4.863 10.863,10.863 0,1.502 -0.312,2.988 -0.915,4.363 l -29.862,71.68 h -76.036 l -19.106,-57.323 c -4.338,-11.219 1.239,-23.831 12.458,-28.17 2.455,-0.949 5.061,-1.446 7.693,-1.466"
         style="fill:#ffff00;fill-opacity:1;fill-rule:evenodd;stroke:#000000;stroke-width:4;stroke-linecap:butt;stroke-linejoin:round;stroke-miterlimit:10;stroke-dasharray:none;stroke-opacity:1"
         id="path620"
         inkscape:connector-curvature="0" /></g><g
       id="g622"><path
         d="m 527.255,325.065 c 79.515,34.984 172.336,-1.115 207.321,-80.629 19.855,-45.127 17.403,-96.951 -6.623,-140.001"
         style="fill:none;stroke:#bebebe;stroke-width:1.79999995;stroke-linecap:butt;stroke-linejoin:round;stroke-miterlimit:10;stroke-dasharray:none;stroke-opacity:1"
         id="path624"
         inkscape:connector-curvature="0" /></g><g
       id="g626"><path
         d="m 747.895,180.813 c -0.039,-22.394 -4.86,-44.523 -14.14,-64.904 l -185.9,10e-4 c 11.999,0 21.726,9.727 21.726,21.726 v 217.266 c 0,11.999 -9.727,21.727 -21.726,21.727 v 0 h 86.906 c -11.999,0 -21.727,-9.728 -21.727,-21.727 V 148.5 h 102.271 c 17.892,0 32.437,14.423 32.589,32.313 z"
         style="fill:#ffff00;fill-opacity:1;fill-rule:evenodd;stroke:#000000;stroke-width:4;stroke-linecap:butt;stroke-linejoin:round;stroke-miterlimit:10;stroke-dasharray:none;stroke-opacity:1"
         id="path628"
         inkscape:connector-curvature="0" /></g></g></svg>