<?xml version="1.0" encoding="UTF-8" standalone="no"?>
<!-- Created with Inkscape (http://www.inkscape.org/) -->

<svg
   xmlns:dc="http://purl.org/dc/elements/1.1/"
   xmlns:cc="http://creativecommons.org/ns#"
   xmlns:rdf="http://www.w3.org/1999/02/22-rdf-syntax-ns#"
   xmlns:svg="http://www.w3.org/2000/svg"
   xmlns="http://www.w3.org/2000/svg"
   xmlns:sodipodi="http://sodipodi.sourceforge.net/DTD/sodipodi-0.dtd"
   xmlns:inkscape="http://www.inkscape.org/namespaces/inkscape"
   version="1.1"
   id="svg316"
   xml:space="preserve"
   width="450"
   height="450"
   viewBox="0 0 450 450"
   sodipodi:docname="g-doc.svg"
   inkscape:version="0.92.3 (2405546, 2018-03-11)"
   inkscape:export-filename="/home/lrineau/Git/cgal-web/web_old/logo/g-196x196-doc.png"
   inkscape:export-xdpi="41.810001"
   inkscape:export-ydpi="41.810001"><metadata
     id="metadata322"><rdf:RDF><cc:Work
         rdf:about=""><dc:format>image/svg+xml</dc:format><dc:type
           rdf:resource="http://purl.org/dc/dcmitype/StillImage" /><dc:title></dc:title></cc:Work></rdf:RDF></metadata><defs
     id="defs320" /><sodipodi:namedview
     pagecolor="#ffffff"
     bordercolor="#666666"
     borderopacity="1"
     objecttolerance="10"
     gridtolerance="10"
     guidetolerance="10"
     inkscape:pageopacity="0"
     inkscape:pageshadow="2"
     inkscape:window-width="3200"
     inkscape:window-height="1739"
     id="namedview318"
     showgrid="false"
     fit-margin-top="0"
     fit-margin-left="0"
     fit-margin-right="0"
     fit-margin-bottom="0"
     inkscape:zoom="2.331881"
     inkscape:cx="172.07301"
     inkscape:cy="163.3556"
     inkscape:window-x="0"
     inkscape:window-y="0"
     inkscape:window-maximized="1"
     inkscape:current-layer="g324"
     inkscape:pagecheckerboard="true" /><g
     id="g324"
     inkscape:groupmode="layer"
     inkscape:label="cgal_2013_grey_square"
     transform="matrix(1.3333333,0,0,-1.3333333,-716.85531,968.80133)"><circle
       style="fill:#ffffff;fill-opacity:1;stroke:none;stroke-width:0.72441125"
       id="path5947"
       cx="704.46179"
       cy="-563.64032"
       transform="scale(1,-1)"
       r="162.31743"
       inkscape:export-xdpi="41.810001"
       inkscape:export-ydpi="41.810001" /><g
       id="g326"
       transform="translate(44.62332,6.1940347)"><path
         d="M 533.269,430.665 V 691.384 H 793.988 V 430.665 Z"
         style="fill:none;stroke:#bebebe;stroke-width:2;stroke-linecap:butt;stroke-linejoin:round;stroke-miterlimit:10;stroke-dasharray:none;stroke-opacity:1"
         id="path328"
         inkscape:connector-curvature="0" /></g><g
       id="g330"
       transform="translate(44.62332,6.1940347)"><path
         d="M 663.938,691.384 V 430.665"
         style="fill:none;stroke:#bebebe;stroke-width:2;stroke-linecap:butt;stroke-linejoin:round;stroke-miterlimit:10;stroke-dasharray:none;stroke-opacity:1"
         id="path332"
         inkscape:connector-curvature="0" /></g><g
       id="g334"
       transform="translate(44.62332,6.1940347)"><path
         d="M 533.578,561.024 H 794.297"
         style="fill:none;stroke:#bebebe;stroke-width:2;stroke-linecap:butt;stroke-linejoin:round;stroke-miterlimit:10;stroke-dasharray:none;stroke-opacity:1"
         id="path336"
         inkscape:connector-curvature="0" /></g><g
       id="g338"
       transform="translate(44.62332,6.1940347)"><path
         d="m 685.664,561.024 c 0,11.999 -9.727,21.727 -21.726,21.727 -11.999,0 -21.727,-9.728 -21.727,-21.727 0,-11.999 9.728,-21.726 21.727,-21.726 11.999,0 21.726,9.727 21.726,21.726"
         style="fill:none;stroke:#bebebe;stroke-width:2;stroke-linecap:butt;stroke-linejoin:round;stroke-miterlimit:10;stroke-dasharray:none;stroke-opacity:1"
         id="path340"
         inkscape:connector-curvature="0" /></g><g
       id="g342"
       transform="translate(44.62332,6.1940347)"><path
         d="M 739.255,430.665 588.621,691.384"
         style="fill:none;stroke:#bebebe;stroke-width:2;stroke-linecap:butt;stroke-linejoin:round;stroke-miterlimit:10;stroke-dasharray:none;stroke-opacity:1"
         id="path344"
         inkscape:connector-curvature="0" /></g><g
       id="g346"
       transform="translate(44.62332,6.1940347)"><path
         d="M 533.578,485.707 794.297,636.341"
         style="fill:none;stroke:#bebebe;stroke-width:2;stroke-linecap:butt;stroke-linejoin:round;stroke-miterlimit:10;stroke-dasharray:none;stroke-opacity:1"
         id="path348"
         inkscape:connector-curvature="0" /></g><g
       id="g350"
       transform="translate(44.62332,6.1940347)"><path
         d="m 582.431,664.492 32.584,18.819"
         style="fill:none;stroke:#bebebe;stroke-width:2;stroke-linecap:butt;stroke-linejoin:round;stroke-miterlimit:10;stroke-dasharray:none;stroke-opacity:1"
         id="path352"
         inkscape:connector-curvature="0" /></g><g
       id="g354"
       transform="translate(44.62332,6.1940347)"><path
         d="m 593.301,645.673 32.583,18.819"
         style="fill:none;stroke:#bebebe;stroke-width:2;stroke-linecap:butt;stroke-linejoin:round;stroke-miterlimit:10;stroke-dasharray:none;stroke-opacity:1"
         id="path356"
         inkscape:connector-curvature="0" /></g><g
       id="g358"
       transform="translate(44.62332,6.1940347)"><path
         d="m 766.58,550.155 c 0,67.077 -54.377,121.455 -121.455,121.455 -67.077,0 -121.455,-54.378 -121.455,-121.455 0,-67.078 54.378,-121.455 121.455,-121.455 67.078,0 121.455,54.377 121.455,121.455"
         style="fill:none;stroke:#bebebe;stroke-width:2;stroke-linecap:butt;stroke-linejoin:round;stroke-miterlimit:10;stroke-dasharray:none;stroke-opacity:1"
         id="path360"
         inkscape:connector-curvature="0" /></g><g
       id="g362"
       transform="translate(44.62332,6.1940347)"><path
         d="m 826.914,542.201 c 0,84.004 -68.098,152.101 -152.101,152.101 -84.003,0 -152.101,-68.097 -152.101,-152.101 0,-84.003 68.098,-152.1 152.101,-152.1 84.003,0 152.101,68.097 152.101,152.1"
         style="fill:none;stroke:#bebebe;stroke-width:2;stroke-linecap:butt;stroke-linejoin:round;stroke-miterlimit:10;stroke-dasharray:none;stroke-opacity:1"
         id="path364"
         inkscape:connector-curvature="0" /></g><g
       id="g366"
       transform="translate(44.62332,6.1940347)"><path
         d="m 689.573,693.585 c 44.678,-4.357 87.51,-20.027 124.451,-45.531"
         style="fill:none;stroke:#bebebe;stroke-width:2;stroke-linecap:butt;stroke-linejoin:round;stroke-miterlimit:10;stroke-dasharray:none;stroke-opacity:1"
         id="path368"
         inkscape:connector-curvature="0" /></g><g
       id="g370"
       transform="translate(44.62332,6.1940347)"><path
         d="m 663.938,669.654 c 55.335,0 108.956,-19.202 151.712,-54.329"
         style="fill:none;stroke:#bebebe;stroke-width:2;stroke-linecap:butt;stroke-linejoin:round;stroke-miterlimit:10;stroke-dasharray:none;stroke-opacity:1"
         id="path372"
         inkscape:connector-curvature="0" /></g><g
       id="g374"
       transform="translate(44.62332,6.1940347)"><path
         d="m 663.938,452.394 c 52.605,0 103.741,17.357 145.478,49.379"
         style="fill:none;stroke:#bebebe;stroke-width:2;stroke-linecap:butt;stroke-linejoin:round;stroke-miterlimit:10;stroke-dasharray:none;stroke-opacity:1"
         id="path376"
         inkscape:connector-curvature="0" /></g><g
       id="g378"
       transform="translate(44.62332,6.1940347)"><path
         d="m 628.348,429.864 c 62.345,-8.484 125.67,5.584 178.559,39.667"
         style="fill:none;stroke:#bebebe;stroke-width:2;stroke-linecap:butt;stroke-linejoin:round;stroke-miterlimit:10;stroke-dasharray:none;stroke-opacity:1"
         id="path380"
         inkscape:connector-curvature="0" /></g><g
       id="g382"
       transform="translate(44.62332,6.1940347)"><path
         d="m 739.255,430.665 c 8.159,30.478 9.44,62.389 3.754,93.423"
         style="fill:none;stroke:#bebebe;stroke-width:2;stroke-linecap:butt;stroke-linejoin:round;stroke-miterlimit:10;stroke-dasharray:none;stroke-opacity:1"
         id="path384"
         inkscape:connector-curvature="0" /></g><g
       id="g386"
       transform="translate(44.62332,6.1940347)"><path
         d="m 746.493,691.384 c 0,-26.302 -4.874,-52.377 -14.374,-76.903"
         style="fill:none;stroke:#bebebe;stroke-width:2;stroke-linecap:butt;stroke-linejoin:round;stroke-miterlimit:10;stroke-dasharray:none;stroke-opacity:1"
         id="path388"
         inkscape:connector-curvature="0" /></g><g
       id="g390"
       transform="translate(44.62332,6.1940347)"><path
         d="m 739.696,641.108 c 0,12 -9.727,21.727 -21.726,21.727 -11.999,0 -21.727,-9.727 -21.727,-21.727 0,-11.999 9.728,-21.726 21.727,-21.726 11.999,0 21.726,9.727 21.726,21.726"
         style="fill:none;stroke:#bebebe;stroke-width:2;stroke-linecap:butt;stroke-linejoin:round;stroke-miterlimit:10;stroke-dasharray:none;stroke-opacity:1"
         id="path392"
         inkscape:connector-curvature="0" /></g><g
       id="g394"
       transform="translate(44.62332,6.1940347)"><path
         d="M 746.493,691.384 V 430.665"
         style="fill:none;stroke:#bebebe;stroke-width:2;stroke-linecap:butt;stroke-linejoin:round;stroke-miterlimit:10;stroke-dasharray:none;stroke-opacity:1"
         id="path396"
         inkscape:connector-curvature="0" /></g><g
       id="g398"
       transform="translate(44.62332,6.1940347)"><path
         d="M 663.938,539.298 H 794.297"
         style="fill:none;stroke:#bebebe;stroke-width:2;stroke-linecap:butt;stroke-linejoin:round;stroke-miterlimit:10;stroke-dasharray:none;stroke-opacity:1"
         id="path400"
         inkscape:connector-curvature="0" /></g><g
       id="g402"
       transform="translate(44.62332,6.1940347)"><path
         d="m 746.493,539.298 c 0,11.999 -9.728,21.726 -21.727,21.726 -11.999,0 -21.726,-9.727 -21.726,-21.726 0,-12 9.727,-21.727 21.726,-21.727 11.999,0 21.727,9.727 21.727,21.727"
         style="fill:none;stroke:#bebebe;stroke-width:2;stroke-linecap:butt;stroke-linejoin:round;stroke-miterlimit:10;stroke-dasharray:none;stroke-opacity:1"
         id="path404"
         inkscape:connector-curvature="0" /></g><g
       id="g406"
       transform="translate(44.62332,6.1940347)"><path
         d="m 789.946,517.571 c 0,11.999 -9.727,21.727 -21.727,21.727 -11.999,0 -21.726,-9.728 -21.726,-21.727 0,-11.999 9.727,-21.727 21.726,-21.727 12,0 21.727,9.728 21.727,21.727"
         style="fill:none;stroke:#bebebe;stroke-width:2;stroke-linecap:butt;stroke-linejoin:round;stroke-miterlimit:10;stroke-dasharray:none;stroke-opacity:1"
         id="path408"
         inkscape:connector-curvature="0" /></g><g
       id="g410"
       transform="translate(44.62332,6.1940347)"><path
         d="M 703.04,430.665 V 539.298"
         style="fill:none;stroke:#bebebe;stroke-width:2;stroke-linecap:butt;stroke-linejoin:round;stroke-miterlimit:10;stroke-dasharray:none;stroke-opacity:1"
         id="path412"
         inkscape:connector-curvature="0" /></g><g
       id="g414"
       transform="translate(44.62332,6.1940347)"><path
         d="m 703.04,517.571 c 0,11.999 -9.728,21.727 -21.727,21.727 -11.999,0 -21.727,-9.728 -21.727,-21.727 0,-11.999 9.728,-21.727 21.727,-21.727 11.999,0 21.727,9.728 21.727,21.727"
         style="fill:none;stroke:#bebebe;stroke-width:2;stroke-linecap:butt;stroke-linejoin:round;stroke-miterlimit:10;stroke-dasharray:none;stroke-opacity:1"
         id="path416"
         inkscape:connector-curvature="0" /></g><g
       id="g490"
       transform="translate(44.62332,6.1940347)"
       style="fill:#879ecb;fill-opacity:1"><path
         d="m 746.279,682.146 c -0.675,-14.502 -2.818,-28.898 -6.397,-42.968 0.842,10.692 -5.99,20.488 -16.314,23.392 -19.477,5.018 -39.509,7.557 -59.621,7.557 -38.349,0 -72.937,-23.059 -87.686,-58.459 -24.567,-56.451 1.281,-122.13 57.732,-146.697 9.268,-4.033 19.042,-6.787 29.052,-8.186 13.173,-2.739 26.743,-2.976 40.004,-0.699 l -10e-4,61.958 c 0,11.999 -9.727,21.726 -21.726,21.726 h 86.906 c -11.999,0 -21.726,-9.727 -21.726,-21.726 V 441.17 c -38.049,-12.53 -78.451,-16.235 -118.145,-10.833 -66.434,9.265 -112.779,70.633 -103.513,137.067 0.115,0.824 0.238,1.647 0.37,2.468 14.12,77.864 85.608,131.876 164.367,124.185 19.279,-1.88 38.292,-5.874 56.698,-11.911 z"
         style="fill:#879ecb;fill-opacity:1;fill-rule:evenodd;stroke:#000000;stroke-width:4;stroke-linecap:butt;stroke-linejoin:round;stroke-miterlimit:10;stroke-dasharray:none;stroke-opacity:1"
         id="path492"
         inkscape:connector-curvature="0" /></g></g></svg>